Dinsy-Regular.ufo
<glyph name="exclam" format="2">
  <advance width="282" />
  <unicode hex="0021" />
  <outline>
    <contour>
      <point x="112" y="195" type="line" />
      <point x="170" y="195" type="line" />
      <point x="185" y="680" type="line" />
      <point x="98" y="680" type="line" />
    </contour>
    <contour>
      <point x="96" y="0" type="line" />
      <point x="186" y="0" type="line" />
      <point x="186" y="93" type="line" />
      <point x="96" y="93" type="line" />
    </contour>
  </outline>
</glyph>
<glyph name="quotedbl" format="2">
  <advance width="303" />
  <unicode hex="0022" />
  <outline>
    <contour>
      <point x="52" y="453" type="line" />
      <point x="117" y="453" type="line" />
      <point x="117" y="680" type="line" />
      <point x="52" y="680" type="line" />
    </contour>
    <contour>
      <point x="187" y="453" type="line" />
      <point x="251" y="453" type="line" />
      <point x="251" y="680" type="line" />
      <point x="187" y="680" type="line" />
    </contour>
  </outline>
</glyph>
<glyph name="numbersign" format="2">
  <advance width="523" />
  <unicode hex="0023" />
  <outline>
    <contour>
      <point x="86" y="0" type="line" />
      <point x="147" y="0" type="line" />
      <point x="176" y="216" type="line" />
      <point x="309" y="216" type="line" />
      <point x="281" y="0" type="line" />
      <point x="343" y="0" type="line" />
      <point x="372" y="216" type="line" />
      <point x="476" y="216" type="line" />
      <point x="476" y="275" type="line" />
      <point x="379" y="275" type="line" />
      <point x="398" y="421" type="line" />
      <point x="500" y="421" type="line" />
      <point x="500" y="479" type="line" />
      <point x="406" y="479" type="line" />
      <point x="432" y="680" type="line" />
      <point x="369" y="680" type="line" />
      <point x="343" y="479" type="line" />
      <point x="210" y="479" type="line" />
      <point x="236" y="680" type="line" />
      <point x="174" y="680" type="line" />
      <point x="148" y="479" type="line" />
      <point x="47" y="479" type="line" />
      <point x="47" y="421" type="line" />
      <point x="140" y="421" type="line" />
      <point x="121" y="275" type="line" />
      <point x="24" y="275" type="line" />
      <point x="24" y="216" type="line" />
      <point x="114" y="216" type="line" />
    </contour>
    <contour>
      <point x="184" y="275" type="line" />
      <point x="203" y="421" type="line" />
      <point x="336" y="421" type="line" />
      <point x="316" y="275" type="line" />
    </contour>
  </outline>
</glyph>
<glyph name="dollar" format="2">
  <advance width="462" />
  <unicode hex="0024" />
  <outline>
    <contour>
      <point x="196" y="-58" type="line" />
      <point x="255" y="-58" type="line" />
      <point x="255" y="29" type="line" />
      <point x="357" y="38" />
      <point x="418" y="101" />
      <point x="418" y="204" type="curve" smooth="yes" />
      <point x="418" y="302" />
      <point x="365" y="354" />
      <point x="272" y="370" type="curve" smooth="yes" />
      <point x="142" y="393" />
      <point x="115" y="429" />
      <point x="115" y="484" type="curve" smooth="yes" />
      <point x="115" y="540" />
      <point x="132" y="585" />
      <point x="222" y="586" type="curve" smooth="yes" />
      <point x="297" y="586" />
      <point x="332" y="545" />
      <point x="338" y="480" type="curve" />
      <point x="409" y="480" type="line" />
      <point x="400" y="586" />
      <point x="343" y="641" />
      <point x="255" y="650" type="curve" />
      <point x="255" y="730" type="line" />
      <point x="196" y="730" type="line" />
      <point x="196" y="649" type="line" />
      <point x="103" y="640" />
      <point x="43" y="576" />
      <point x="43" y="479" type="curve" smooth="yes" />
      <point x="43" y="385" />
      <point x="92" y="336" />
      <point x="188" y="317" type="curve" smooth="yes" />
      <point x="329" y="288" />
      <point x="345" y="262" />
      <point x="345" y="199" type="curve" smooth="yes" />
      <point x="345" y="120" />
      <point x="294" y="88" />
      <point x="222" y="88" type="curve" smooth="yes" />
      <point x="149" y="88" />
      <point x="109" y="139" />
      <point x="103" y="207" type="curve" />
      <point x="33" y="207" type="line" />
      <point x="39" y="100" />
      <point x="97" y="38" />
      <point x="196" y="28" type="curve" />
    </contour>
  </outline>
</glyph>
<glyph name="ampersand" format="2">
  <advance width="606" />
  <unicode hex="0026" />
  <outline>
    <contour>
      <point x="230" y="-10" type="curve" smooth="yes" />
      <point x="296" y="-10" />
      <point x="351" y="18" />
      <point x="405" y="83" type="curve" />
      <point x="456" y="7" />
      <point x="478" y="0" />
      <point x="517" y="0" type="curve" smooth="yes" />
      <point x="550" y="0" type="line" />
      <point x="550" y="68" type="line" />
      <point x="528" y="68" type="line" smooth="yes" />
      <point x="511" y="68" />
      <point x="496" y="77" />
      <point x="481" y="96" type="curve" smooth="yes" />
      <point x="450" y="139" type="line" />
      <point x="535" y="248" type="line" />
      <point x="485" y="291" type="line" />
      <point x="410" y="194" type="line" />
      <point x="284" y="366" type="line" />
      <point x="374" y="440" />
      <point x="403" y="483" />
      <point x="403" y="546" type="curve" smooth="yes" />
      <point x="403" y="630" />
      <point x="342" y="690" />
      <point x="256" y="690" type="curve" smooth="yes" />
      <point x="169" y="690" />
      <point x="108" y="628" />
      <point x="108" y="545" type="curve" smooth="yes" />
      <point x="108" y="499" />
      <point x="127" y="465" />
      <point x="189" y="376" type="curve" />
      <point x="98" y="301" />
      <point x="56" y="239" />
      <point x="56" y="164" type="curve" smooth="yes" />
      <point x="56" y="62" />
      <point x="120" y="-10" />
    </contour>
    <contour>
      <point x="128" y="166" type="curve" smooth="yes" />
      <point x="128" y="219" />
      <point x="159" y="266" />
      <point x="228" y="324" type="curve" />
      <point x="366" y="137" type="line" />
      <point x="316" y="77" />
      <point x="282" y="56" />
      <point x="235" y="56" type="curve" smooth="yes" />
      <point x="167" y="56" />
      <point x="128" y="100" />
    </contour>
    <contour>
      <point x="243" y="418" type="curve" />
      <point x="189" y="495" />
      <point x="179" y="516" />
      <point x="179" y="546" type="curve" smooth="yes" />
      <point x="179" y="594" />
      <point x="211" y="627" />
      <point x="256" y="627" type="curve" smooth="yes" />
      <point x="301" y="627" />
      <point x="333" y="595" />
      <point x="333" y="547" type="curve" smooth="yes" />
      <point x="333" y="504" />
      <point x="316" y="478" />
    </contour>
  </outline>
</glyph>
<glyph name="quotesingle" format="2">
  <advance width="169" />
  <unicode hex="0027" />
  <outline>
    <contour>
      <point x="52" y="453" type="line" />
      <point x="117" y="453" type="line" />
      <point x="117" y="680" type="line" />
      <point x="52" y="680" type="line" />
    </contour>
  </outline>
</glyph>
<glyph name="parenleft" format="2">
  <advance width="290" />
  <unicode hex="0028" />
  <outline>
    <contour>
      <point x="178" y="-83" type="curve" />
      <point x="234" y="-83" type="line" />
      <point x="165" y="40" />
      <point x="129" y="183" />
      <point x="129" y="323" type="curve" smooth="yes" />
      <point x="129" y="461" />
      <point x="165" y="604" />
      <point x="234" y="729" type="curve" />
      <point x="179" y="729" type="line" />
      <point x="97" y="605" />
      <point x="56" y="467" />
      <point x="56" y="323" type="curve" smooth="yes" />
      <point x="56" y="180" />
      <point x="96" y="44" />
    </contour>
  </outline>
</glyph>
<glyph name="parenright" format="2">
  <advance width="290" />
  <unicode hex="0029" />
  <outline>
    <contour>
      <point x="56" y="-83" type="curve" />
      <point x="114" y="-83" type="line" />
      <point x="194" y="44" />
      <point x="234" y="180" />
      <point x="234" y="323" type="curve" smooth="yes" />
      <point x="234" y="468" />
      <point x="193" y="606" />
      <point x="113" y="729" type="curve" />
      <point x="56" y="729" type="line" />
      <point x="125" y="604" />
      <point x="163" y="462" />
      <point x="163" y="323" type="curve" smooth="yes" />
      <point x="163" y="185" />
      <point x="125" y="40" />
    </contour>
  </outline>
</glyph>
<glyph name="asterisk" format="2">
  <advance width="371" />
  <unicode hex="002A" />
  <outline>
    <contour>
      <point x="164" y="409" type="line" />
      <point x="208" y="409" type="line" />
      <point x="208" y="511" type="line" />
      <point x="293" y="462" type="line" />
      <point x="314" y="497" type="line" />
      <point x="227" y="547" type="line" />
      <point x="314" y="597" type="line" />
      <point x="293" y="632" type="line" />
      <point x="208" y="583" type="line" />
      <point x="208" y="680" type="line" />
      <point x="164" y="680" type="line" />
      <point x="164" y="583" type="line" />
      <point x="79" y="632" type="line" />
      <point x="58" y="597" type="line" />
      <point x="145" y="547" type="line" />
      <point x="58" y="497" type="line" />
      <point x="79" y="462" type="line" />
      <point x="164" y="511" type="line" />
    </contour>
  </outline>
</glyph>
<glyph name="plus" format="2">
  <advance width="504" />
  <unicode hex="002B" />
  <outline>
    <contour>
      <point x="219" y="76" type="line" />
      <point x="285" y="76" type="line" />
      <point x="285" y="240" type="line" />
      <point x="448" y="240" type="line" />
      <point x="448" y="304" type="line" />
      <point x="285" y="304" type="line" />
      <point x="285" y="467" type="line" />
      <point x="219" y="467" type="line" />
      <point x="219" y="304" type="line" />
      <point x="56" y="304" type="line" />
      <point x="56" y="240" type="line" />
      <point x="219" y="240" type="line" />
    </contour>
  </outline>
</glyph>
<glyph name="comma" format="2">
  <advance width="205" />
  <unicode hex="002C" />
  <outline>
    <contour>
      <point x="70" y="-135" type="line" />
      <point x="135" y="-74" type="line" />
      <point x="135" y="91" type="line" />
      <point x="70" y="91" type="line" />
    </contour>
  </outline>
</glyph>
<glyph name="hyphen" format="2">
  <advance width="365" />
  <unicode hex="002D" />
  <outline>
    <contour>
      <point x="47" y="310" type="line" />
      <point x="318" y="310" type="line" />
      <point x="318" y="374" type="line" />
      <point x="47" y="374" type="line" />
    </contour>
  </outline>
</glyph>
<glyph name="slash" format="2">
  <advance width="386" />
  <unicode hex="002F" />
  <outline>
    <contour>
      <point x="58" y="-10" type="line" />
      <point x="117" y="-10" type="line" />
      <point x="328" y="680" type="line" />
      <point x="269" y="680" type="line" />
    </contour>
  </outline>
</glyph>
<glyph name="zero" format="2">
  <advance width="500" />
  <unicode hex="0030" />
  <outline>
    <contour>
      <point x="250" y="-10" type="curve" smooth="yes" />
      <point x="375" y="-10" />
      <point x="438" y="66" />
      <point x="438" y="216" type="curve" smooth="yes" />
      <point x="438" y="467" type="line" smooth="yes" />
      <point x="438" y="615" />
      <point x="376" y="690" />
      <point x="250" y="690" type="curve" smooth="yes" />
      <point x="126" y="690" />
      <point x="63" y="615" />
      <point x="63" y="467" type="curve" smooth="yes" />
      <point x="63" y="216" type="line" smooth="yes" />
      <point x="63" y="66" />
      <point x="126" y="-10" />
    </contour>
    <contour>
      <point x="140" y="228" type="curve" smooth="yes" />
      <point x="140" y="451" type="line" smooth="yes" />
      <point x="140" y="571" />
      <point x="171" y="620" />
      <point x="250" y="620" type="curve" smooth="yes" />
      <point x="329" y="620" />
      <point x="361" y="571" />
      <point x="361" y="451" type="curve" smooth="yes" />
      <point x="361" y="228" type="line" smooth="yes" />
      <point x="361" y="108" />
      <point x="330" y="59" />
      <point x="250" y="59" type="curve" smooth="yes" />
      <point x="171" y="59" />
      <point x="140" y="108" />
    </contour>
  </outline>
</glyph>
<glyph name="one" format="2">
  <advance width="333" />
  <unicode hex="0031" />
  <outline>
    <contour>
      <point x="173" y="0" type="line" />
      <point x="249" y="0" type="line" />
      <point x="249" y="680" type="line" />
      <point x="172" y="680" type="line" />
      <point x="48" y="589" type="line" />
      <point x="48" y="504" type="line" />
      <point x="173" y="594" type="line" />
    </contour>
  </outline>
</glyph>
<glyph name="two" format="2">
  <advance width="478" />
  <unicode hex="0032" />
  <outline>
    <contour>
      <point x="57" y="0" type="line" />
      <point x="422" y="0" type="line" />
      <point x="422" y="68" type="line" />
      <point x="155" y="68" type="line" />
      <point x="352" y="337" type="line" smooth="yes" />
      <point x="398" y="394" />
      <point x="420" y="442" />
      <point x="420" y="501" type="curve" smooth="yes" />
      <point x="420" y="518" type="line" smooth="yes" />
      <point x="420" y="616" />
      <point x="346" y="690" />
      <point x="239" y="690" type="curve" smooth="yes" />
      <point x="127" y="690" />
      <point x="57" y="620" />
      <point x="57" y="517" type="curve" smooth="yes" />
      <point x="57" y="496" type="line" />
      <point x="132" y="496" type="line" />
      <point x="132" y="512" type="line" smooth="yes" />
      <point x="132" y="585" />
      <point x="171" y="621" />
      <point x="237" y="621" type="curve" smooth="yes" />
      <point x="301" y="621" />
      <point x="342" y="582" />
      <point x="342" y="516" type="curve" smooth="yes" />
      <point x="342" y="501" type="line" smooth="yes" />
      <point x="342" y="462" />
      <point x="327" y="423" />
      <point x="292" y="377" type="curve" smooth="yes" />
      <point x="57" y="62" type="line" />
    </contour>
  </outline>
</glyph>
<glyph name="three" format="2">
  <advance width="487" />
  <unicode hex="0033" />
  <outline>
    <contour>
      <point x="239" y="-10" type="curve" smooth="yes" />
      <point x="348" y="-10" />
      <point x="422" y="63" />
      <point x="422" y="176" type="curve" smooth="yes" />
      <point x="422" y="200" type="line" smooth="yes" />
      <point x="422" y="277" />
      <point x="389" y="337" />
      <point x="325" y="360" type="curve" />
      <point x="377" y="383" />
      <point x="411" y="434" />
      <point x="411" y="499" type="curve" smooth="yes" />
      <point x="411" y="521" type="line" smooth="yes" />
      <point x="411" y="623" />
      <point x="345" y="690" />
      <point x="240" y="690" type="curve" smooth="yes" />
      <point x="134" y="690" />
      <point x="68" y="626" />
      <point x="68" y="526" type="curve" smooth="yes" />
      <point x="68" y="508" type="line" />
      <point x="137" y="508" type="line" />
      <point x="137" y="524" type="line" smooth="yes" />
      <point x="137" y="586" />
      <point x="174" y="625" />
      <point x="238" y="625" type="curve" smooth="yes" />
      <point x="301" y="625" />
      <point x="340" y="583" />
      <point x="340" y="518" type="curve" smooth="yes" />
      <point x="340" y="497" type="line" smooth="yes" />
      <point x="340" y="430" />
      <point x="299" y="385" />
      <point x="234" y="385" type="curve" smooth="yes" />
      <point x="199" y="385" type="line" />
      <point x="199" y="320" type="line" />
      <point x="235" y="320" type="line" smooth="yes" />
      <point x="308" y="320" />
      <point x="351" y="273" />
      <point x="351" y="198" type="curve" smooth="yes" />
      <point x="351" y="172" type="line" smooth="yes" />
      <point x="351" y="99" />
      <point x="309" y="54" />
      <point x="240" y="54" type="curve" smooth="yes" />
      <point x="174" y="54" />
      <point x="132" y="92" />
      <point x="132" y="156" type="curve" smooth="yes" />
      <point x="132" y="168" type="line" />
      <point x="60" y="168" type="line" />
      <point x="60" y="153" type="line" smooth="yes" />
      <point x="60" y="53" />
      <point x="129" y="-10" />
    </contour>
  </outline>
</glyph>
<glyph name="five" format="2">
  <advance width="476" />
  <unicode hex="0035" />
  <outline>
    <contour>
      <point x="238" y="-10" type="curve" smooth="yes" />
      <point x="347" y="-10" />
      <point x="412" y="60" />
      <point x="412" y="177" type="curve" smooth="yes" />
      <point x="412" y="251" type="line" smooth="yes" />
      <point x="412" y="372" />
      <point x="357" y="442" />
      <point x="247" y="442" type="curve" smooth="yes" />
      <point x="203" y="442" />
      <point x="164" y="424" />
      <point x="141" y="397" type="curve" />
      <point x="141" y="614" type="line" />
      <point x="401" y="614" type="line" />
      <point x="401" y="680" type="line" />
      <point x="76" y="680" type="line" />
      <point x="76" y="307" type="line" />
      <point x="139" y="307" type="line" />
      <point x="154" y="351" />
      <point x="189" y="376" />
      <point x="238" y="376" type="curve" smooth="yes" />
      <point x="307" y="376" />
      <point x="340" y="334" />
      <point x="340" y="247" type="curve" smooth="yes" />
      <point x="340" y="183" type="line" smooth="yes" />
      <point x="340" y="97" />
      <point x="306" y="55" />
      <point x="237" y="55" type="curve" smooth="yes" />
      <point x="171" y="55" />
      <point x="134" y="90" />
      <point x="134" y="154" type="curve" smooth="yes" />
      <point x="134" y="161" type="line" />
      <point x="65" y="161" type="line" />
      <point x="65" y="148" type="line" smooth="yes" />
      <point x="65" y="50" />
      <point x="130" y="-10" />
    </contour>
  </outline>
</glyph>
<glyph name="six" format="2">
  <advance width="486" />
  <unicode hex="0036" />
  <outline>
    <contour>
      <point x="243" y="-10" type="curve" smooth="yes" />
      <point x="350" y="-10" />
      <point x="428" y="62" />
      <point x="428" y="183" type="curve" smooth="yes" />
      <point x="428" y="216" type="line" smooth="yes" />
      <point x="428" y="330" />
      <point x="361" y="402" />
      <point x="259" y="402" type="curve" smooth="yes" />
      <point x="230" y="402" />
      <point x="201" y="392" />
      <point x="186" y="381" type="curve" />
      <point x="332" y="680" type="line" />
      <point x="257" y="680" type="line" />
      <point x="98" y="360" type="line" smooth="yes" />
      <point x="71" y="308" />
      <point x="58" y="263" />
      <point x="58" y="215" type="curve" smooth="yes" />
      <point x="58" y="181" type="line" smooth="yes" />
      <point x="58" y="63" />
      <point x="130" y="-10" />
    </contour>
    <contour>
      <point x="131" y="180" type="curve" smooth="yes" />
      <point x="131" y="214" type="line" smooth="yes" />
      <point x="131" y="290" />
      <point x="176" y="337" />
      <point x="243" y="337" type="curve" smooth="yes" />
      <point x="313" y="337" />
      <point x="357" y="290" />
      <point x="357" y="213" type="curve" smooth="yes" />
      <point x="357" y="179" type="line" smooth="yes" />
      <point x="357" y="102" />
      <point x="313" y="54" />
      <point x="243" y="54" type="curve" smooth="yes" />
      <point x="174" y="54" />
      <point x="131" y="103" />
    </contour>
  </outline>
</glyph>
<glyph name="seven" format="2">
  <advance width="424" />
  <unicode hex="0037" />
  <outline>
    <contour>
      <point x="91" y="0" type="line" />
      <point x="164" y="0" type="line" />
      <point x="385" y="615" type="line" />
      <point x="385" y="680" type="line" />
      <point x="39" y="680" type="line" />
      <point x="39" y="615" type="line" />
      <point x="316" y="615" type="line" />
    </contour>
  </outline>
</glyph>
<glyph name="eight" format="2">
  <advance width="504" />
  <unicode hex="0038" />
  <outline>
    <contour>
      <point x="251" y="-10" type="curve" smooth="yes" />
      <point x="361" y="-10" />
      <point x="440" y="64" />
      <point x="440" y="177" type="curve" smooth="yes" />
      <point x="440" y="202" type="line" smooth="yes" />
      <point x="440" y="269" />
      <point x="404" y="330" />
      <point x="344" y="359" type="curve" />
      <point x="394" y="384" />
      <point x="426" y="433" />
      <point x="426" y="498" type="curve" smooth="yes" />
      <point x="426" y="518" type="line" smooth="yes" />
      <point x="426" y="614" />
      <point x="356" y="690" />
      <point x="252" y="690" type="curve" smooth="yes" />
      <point x="151" y="690" />
      <point x="79" y="614" />
      <point x="79" y="518" type="curve" smooth="yes" />
      <point x="79" y="498" type="line" smooth="yes" />
      <point x="79" y="433" />
      <point x="110" y="384" />
      <point x="160" y="359" type="curve" />
      <point x="100" y="332" />
      <point x="65" y="272" />
      <point x="65" y="201" type="curve" smooth="yes" />
      <point x="65" y="176" type="line" smooth="yes" />
      <point x="65" y="66" />
      <point x="141" y="-10" />
    </contour>
    <contour>
      <point x="252" y="54" type="curve" smooth="yes" />
      <point x="183" y="54" />
      <point x="137" y="104" />
      <point x="137" y="177" type="curve" smooth="yes" />
      <point x="137" y="202" type="line" smooth="yes" />
      <point x="137" y="275" />
      <point x="183" y="325" />
      <point x="252" y="325" type="curve" smooth="yes" />
      <point x="323" y="325" />
      <point x="367" y="275" />
      <point x="367" y="202" type="curve" smooth="yes" />
      <point x="367" y="177" type="line" smooth="yes" />
      <point x="367" y="104" />
      <point x="321" y="54" />
    </contour>
    <contour>
      <point x="252" y="389" type="curve" smooth="yes" />
      <point x="190" y="389" />
      <point x="151" y="435" />
      <point x="151" y="498" type="curve" smooth="yes" />
      <point x="151" y="519" type="line" smooth="yes" />
      <point x="151" y="581" />
      <point x="192" y="625" />
      <point x="252" y="625" type="curve" smooth="yes" />
      <point x="312" y="625" />
      <point x="355" y="581" />
      <point x="355" y="519" type="curve" smooth="yes" />
      <point x="355" y="498" type="line" smooth="yes" />
      <point x="355" y="435" />
      <point x="314" y="389" />
    </contour>
  </outline>
</glyph>
<glyph name="nine" format="2">
  <advance width="486" />
  <unicode hex="0039" />
  <outline>
    <contour>
      <point x="156" y="0" type="line" />
      <point x="231" y="0" type="line" />
      <point x="388" y="320" type="line" smooth="yes" />
      <point x="415" y="376" />
      <point x="428" y="417" />
      <point x="428" y="465" type="curve" smooth="yes" />
      <point x="428" y="498" type="line" smooth="yes" />
      <point x="428" y="616" />
      <point x="357" y="690" />
      <point x="243" y="690" type="curve" smooth="yes" />
      <point x="137" y="690" />
      <point x="58" y="618" />
      <point x="58" y="496" type="curve" smooth="yes" />
      <point x="58" y="463" type="line" smooth="yes" />
      <point x="58" y="351" />
      <point x="126" y="278" />
      <point x="228" y="278" type="curve" smooth="yes" />
      <point x="257" y="278" />
      <point x="286" y="287" />
      <point x="301" y="298" type="curve" />
    </contour>
    <contour>
      <point x="130" y="467" type="curve" smooth="yes" />
      <point x="130" y="500" type="line" smooth="yes" />
      <point x="130" y="577" />
      <point x="174" y="625" />
      <point x="243" y="625" type="curve" smooth="yes" />
      <point x="313" y="625" />
      <point x="356" y="576" />
      <point x="356" y="499" type="curve" smooth="yes" />
      <point x="356" y="466" type="line" smooth="yes" />
      <point x="356" y="389" />
      <point x="313" y="342" />
      <point x="243" y="342" type="curve" smooth="yes" />
      <point x="174" y="342" />
      <point x="130" y="390" />
    </contour>
  </outline>
</glyph>
<glyph name="colon" format="2">
  <advance width="238" />
  <unicode hex="003A" />
  <outline>
    <contour>
      <point x="74" y="13" type="line" />
      <point x="164" y="13" type="line" />
      <point x="164" y="108" type="line" />
      <point x="74" y="108" type="line" />
    </contour>
    <contour>
      <point x="74" y="319" type="line" />
      <point x="164" y="319" type="line" />
      <point x="164" y="414" type="line" />
      <point x="74" y="414" type="line" />
    </contour>
  </outline>
</glyph>
<glyph name="semicolon" format="2">
  <advance width="190" />
  <unicode hex="003B" />
  <outline>
    <contour>
      <point x="74" y="-135" type="line" />
      <point x="139" y="-74" type="line" />
      <point x="139" y="91" type="line" />
      <point x="74" y="91" type="line" />
    </contour>
    <contour>
      <point x="52" y="333" type="line" />
      <point x="139" y="333" type="line" />
      <point x="139" y="423" type="line" />
      <point x="52" y="423" type="line" />
    </contour>
  </outline>
</glyph>
<glyph name="less" format="2">
  <advance width="504" />
  <unicode hex="003C" />
  <outline>
    <contour>
      <point x="448" y="83" type="line" />
      <point x="448" y="153" type="line" />
      <point x="148" y="272" type="line" />
      <point x="448" y="391" type="line" />
      <point x="448" y="461" type="line" />
      <point x="56" y="301" type="line" />
      <point x="56" y="243" type="line" />
    </contour>
  </outline>
</glyph>
<glyph name="equal" format="2">
  <advance width="504" />
  <unicode hex="003D" />
  <outline>
    <contour>
      <point x="56" y="333" type="line" />
      <point x="448" y="333" type="line" />
      <point x="448" y="399" type="line" />
      <point x="56" y="399" type="line" />
    </contour>
    <contour>
      <point x="56" y="145" type="line" />
      <point x="448" y="145" type="line" />
      <point x="448" y="210" type="line" />
      <point x="56" y="210" type="line" />
    </contour>
  </outline>
</glyph>
<glyph name="greater" format="2">
  <advance width="503" />
  <unicode hex="003E" />
  <outline>
    <contour>
      <point x="55" y="81" type="line" />
      <point x="448" y="241" type="line" />
      <point x="448" y="303" type="line" />
      <point x="55" y="463" type="line" />
      <point x="55" y="390" type="line" />
      <point x="352" y="272" type="line" />
      <point x="55" y="155" type="line" />
    </contour>
  </outline>
</glyph>
<glyph name="question" format="2">
  <advance width="424" />
  <unicode hex="003F" />
  <outline>
    <contour>
      <point x="171" y="175" type="line" />
      <point x="243" y="175" type="line" />
      <point x="243" y="233" type="line" smooth="yes" />
      <point x="243" y="265" />
      <point x="249" y="284" />
      <point x="272" y="315" type="curve" smooth="yes" />
      <point x="328" y="393" type="line" smooth="yes" />
      <point x="363" y="443" />
      <point x="378" y="477" />
      <point x="378" y="525" type="curve" smooth="yes" />
      <point x="378" y="623" />
      <point x="314" y="690" />
      <point x="210" y="690" type="curve" smooth="yes" />
      <point x="100" y="690" />
      <point x="41" y="627" />
      <point x="40" y="518" type="curve" />
      <point x="111" y="518" type="line" />
      <point x="112" y="589" />
      <point x="144" y="624" />
      <point x="208" y="624" type="curve" smooth="yes" />
      <point x="271" y="624" />
      <point x="306" y="589" />
      <point x="306" y="525" type="curve" smooth="yes" />
      <point x="306" y="489" />
      <point x="295" y="464" />
      <point x="261" y="416" type="curve" smooth="yes" />
      <point x="208" y="343" type="line" smooth="yes" />
      <point x="177" y="303" />
      <point x="171" y="282" />
      <point x="171" y="234" type="curve" smooth="yes" />
    </contour>
    <contour>
      <point x="164" y="0" type="line" />
      <point x="251" y="0" type="line" />
      <point x="251" y="91" type="line" />
      <point x="164" y="91" type="line" />
    </contour>
  </outline>
</glyph>
<glyph name="at" format="2">
  <advance width="855" />
  <unicode hex="0040" />
  <outline>
    <contour>
      <point x="427" y="-126" type="curve" smooth="yes" />
      <point x="521" y="-126" />
      <point x="593" y="-109" />
      <point x="664" y="-68" type="curve" />
      <point x="639" y="-10" type="line" />
      <point x="575" y="-44" />
      <point x="514" y="-61" />
      <point x="427" y="-61" type="curve" smooth="yes" />
      <point x="244" y="-61" />
      <point x="129" y="63" />
      <point x="129" y="243" type="curve" smooth="yes" />
      <point x="129" y="316" type="line" smooth="yes" />
      <point x="129" y="495" />
      <point x="246" y="615" />
      <point x="427" y="615" type="curve" smooth="yes" />
      <point x="608" y="615" />
      <point x="727" y="495" />
      <point x="727" y="315" type="curve" smooth="yes" />
      <point x="727" y="246" type="line" smooth="yes" />
      <point x="727" y="150" />
      <point x="701" y="114" />
      <point x="651" y="114" type="curve" smooth="yes" />
      <point x="612" y="114" />
      <point x="583" y="142" />
      <point x="583" y="197" type="curve" smooth="yes" />
      <point x="583" y="482" type="line" />
      <point x="517" y="482" type="line" />
      <point x="517" y="439" type="line" />
      <point x="495" y="472" />
      <point x="457" y="492" />
      <point x="407" y="492" type="curve" smooth="yes" />
      <point x="310" y="492" />
      <point x="263" y="427" />
      <point x="263" y="314" type="curve" smooth="yes" />
      <point x="263" y="233" type="line" smooth="yes" />
      <point x="263" y="120" />
      <point x="308" y="55" />
      <point x="410" y="55" type="curve" smooth="yes" />
      <point x="472" y="55" />
      <point x="516" y="79" />
      <point x="535" y="125" type="curve" />
      <point x="554" y="81" />
      <point x="595" y="55" />
      <point x="650" y="55" type="curve" smooth="yes" />
      <point x="739" y="55" />
      <point x="799" y="119" />
      <point x="799" y="247" type="curve" smooth="yes" />
      <point x="799" y="316" type="line" smooth="yes" />
      <point x="799" y="528" />
      <point x="642" y="681" />
      <point x="427" y="681" type="curve" smooth="yes" />
      <point x="211" y="681" />
      <point x="57" y="530" />
      <point x="57" y="314" type="curve" smooth="yes" />
      <point x="57" y="244" type="line" smooth="yes" />
      <point x="57" y="25" />
      <point x="211" y="-126" />
    </contour>
    <contour>
      <point x="334" y="238" type="curve" smooth="yes" />
      <point x="334" y="313" type="line" smooth="yes" />
      <point x="334" y="392" />
      <point x="364" y="433" />
      <point x="424" y="433" type="curve" smooth="yes" />
      <point x="484" y="433" />
      <point x="514" y="392" />
      <point x="514" y="316" type="curve" smooth="yes" />
      <point x="514" y="234" type="line" smooth="yes" />
      <point x="514" y="154" />
      <point x="483" y="114" />
      <point x="424" y="114" type="curve" smooth="yes" />
      <point x="360" y="114" />
      <point x="334" y="159" />
    </contour>
  </outline>
</glyph>
<glyph name="A" format="2">
  <advance width="568" />
  <unicode hex="0041" />
  <anchor x="285" y="680" name="top" />
  <outline>
    <contour>
      <point x="7" y="0" type="line" />
      <point x="83" y="0" type="line" />
      <point x="139" y="164" type="line" />
      <point x="428" y="164" type="line" />
      <point x="486" y="0" type="line" />
      <point x="562" y="0" type="line" />
      <point x="315" y="680" type="line" />
      <point x="254" y="680" type="line" />
    </contour>
    <contour>
      <point x="161" y="224" type="line" />
      <point x="284" y="579" type="line" />
      <point x="408" y="224" type="line" />
    </contour>
  </outline>
</glyph>
<glyph name="B" format="2">
  <advance width="616" />
  <unicode hex="0042" />
  <outline>
    <contour>
      <point x="84" y="0" type="line" />
      <point x="352" y="0" type="line" smooth="yes" />
      <point x="485" y="0" />
      <point x="564" y="68" />
      <point x="564" y="188" type="curve" smooth="yes" />
      <point x="564" y="268" />
      <point x="525" y="327" />
      <point x="449" y="350" type="curve" />
      <point x="514" y="372" />
      <point x="553" y="430" />
      <point x="553" y="499" type="curve" smooth="yes" />
      <point x="553" y="615" />
      <point x="478" y="680" />
      <point x="347" y="680" type="curve" smooth="yes" />
      <point x="84" y="680" type="line" />
    </contour>
    <contour>
      <point x="161" y="68" type="line" />
      <point x="161" y="314" type="line" />
      <point x="346" y="314" type="line" smooth="yes" />
      <point x="438" y="314" />
      <point x="487" y="272" />
      <point x="487" y="192" type="curve" smooth="yes" />
      <point x="487" y="111" />
      <point x="437" y="68" />
      <point x="347" y="68" type="curve" smooth="yes" />
    </contour>
    <contour>
      <point x="161" y="381" type="line" />
      <point x="161" y="612" type="line" />
      <point x="343" y="612" type="line" smooth="yes" />
      <point x="429" y="612" />
      <point x="476" y="572" />
      <point x="476" y="495" type="curve" smooth="yes" />
      <point x="476" y="418" />
      <point x="427" y="381" />
      <point x="341" y="381" type="curve" smooth="yes" />
    </contour>
  </outline>
</glyph>
<glyph name="C" format="2">
  <advance width="619" />
  <unicode hex="0043" />
  <outline>
    <contour>
      <point x="316" y="-8" type="curve" smooth="yes" />
      <point x="462" y="-8" />
      <point x="555" y="72" />
      <point x="555" y="200" type="curve" smooth="yes" />
      <point x="555" y="204" type="line" />
      <point x="480" y="204" type="line" />
      <point x="480" y="200" type="line" smooth="yes" />
      <point x="480" y="113" />
      <point x="418" y="62" />
      <point x="316" y="62" type="curve" smooth="yes" />
      <point x="198" y="62" />
      <point x="140" y="127" />
      <point x="140" y="260" type="curve" smooth="yes" />
      <point x="140" y="414" type="line" smooth="yes" />
      <point x="140" y="558" />
      <point x="199" y="619" />
      <point x="316" y="619" type="curve" smooth="yes" />
      <point x="418" y="619" />
      <point x="480" y="567" />
      <point x="480" y="478" type="curve" smooth="yes" />
      <point x="480" y="475" type="line" />
      <point x="557" y="475" type="line" />
      <point x="557" y="479" type="line" smooth="yes" />
      <point x="557" y="606" />
      <point x="462" y="689" />
      <point x="316" y="689" type="curve" smooth="yes" />
      <point x="160" y="689" />
      <point x="63" y="603" />
      <point x="63" y="417" type="curve" smooth="yes" />
      <point x="63" y="263" type="line" smooth="yes" />
      <point x="63" y="77" />
      <point x="159" y="-8" />
    </contour>
  </outline>
</glyph>
<glyph name="D" format="2">
  <advance width="611" />
  <unicode hex="0044" />
  <outline>
    <contour>
      <point x="84" y="0" type="line" />
      <point x="317" y="0" type="line" smooth="yes" />
      <point x="461" y="0" />
      <point x="551" y="79" />
      <point x="551" y="260" type="curve" smooth="yes" />
      <point x="551" y="419" type="line" smooth="yes" />
      <point x="551" y="600" />
      <point x="461" y="680" />
      <point x="317" y="680" type="curve" smooth="yes" />
      <point x="84" y="680" type="line" />
    </contour>
    <contour>
      <point x="157" y="65" type="line" />
      <point x="157" y="615" type="line" />
      <point x="318" y="615" type="line" smooth="yes" />
      <point x="422" y="615" />
      <point x="479" y="555" />
      <point x="479" y="417" type="curve" smooth="yes" />
      <point x="479" y="256" type="line" smooth="yes" />
      <point x="479" y="129" />
      <point x="425" y="65" />
      <point x="318" y="65" type="curve" smooth="yes" />
    </contour>
  </outline>
</glyph>
<glyph name="E" format="2">
  <advance width="564" />
  <unicode hex="0045" />
  <anchor x="271" y="680" name="top" />
  <outline>
    <contour>
      <point x="84" y="0" type="line" />
      <point x="514" y="0" type="line" />
      <point x="514" y="69" type="line" />
      <point x="161" y="69" type="line" />
      <point x="161" y="311" type="line" />
      <point x="463" y="311" type="line" />
      <point x="463" y="380" type="line" />
      <point x="161" y="380" type="line" />
      <point x="161" y="611" type="line" />
      <point x="514" y="611" type="line" />
      <point x="514" y="680" type="line" />
      <point x="84" y="680" type="line" />
    </contour>
  </outline>
</glyph>
<glyph name="F" format="2">
  <advance width="540" />
  <unicode hex="0046" />
  <outline>
    <contour>
      <point x="79" y="0" type="line" />
      <point x="151" y="0" type="line" />
      <point x="151" y="312" type="line" />
      <point x="442" y="312" type="line" />
      <point x="442" y="376" type="line" />
      <point x="151" y="376" type="line" />
      <point x="151" y="615" type="line" />
      <point x="492" y="615" type="line" />
      <point x="492" y="680" type="line" />
      <point x="79" y="680" type="line" />
    </contour>
  </outline>
</glyph>
<glyph name="G" format="2">
  <advance width="614" />
  <unicode hex="0047" />
  <outline>
    <contour>
      <point x="312" y="-8" type="curve" smooth="yes" />
      <point x="460" y="-8" />
      <point x="554" y="72" />
      <point x="554" y="247" type="curve" smooth="yes" />
      <point x="554" y="351" type="line" />
      <point x="308" y="351" type="line" />
      <point x="308" y="285" type="line" />
      <point x="477" y="285" type="line" />
      <point x="477" y="237" type="line" smooth="yes" />
      <point x="477" y="116" />
      <point x="420" y="62" />
      <point x="313" y="62" type="curve" smooth="yes" />
      <point x="195" y="62" />
      <point x="137" y="127" />
      <point x="137" y="260" type="curve" smooth="yes" />
      <point x="137" y="414" type="line" smooth="yes" />
      <point x="137" y="556" />
      <point x="195" y="619" />
      <point x="312" y="619" type="curve" smooth="yes" />
      <point x="414" y="619" />
      <point x="476" y="567" />
      <point x="476" y="480" type="curve" smooth="yes" />
      <point x="476" y="476" type="line" />
      <point x="552" y="476" type="line" />
      <point x="552" y="480" type="line" smooth="yes" />
      <point x="552" y="605" />
      <point x="457" y="689" />
      <point x="312" y="689" type="curve" smooth="yes" />
      <point x="156" y="689" />
      <point x="60" y="603" />
      <point x="60" y="417" type="curve" smooth="yes" />
      <point x="60" y="263" type="line" smooth="yes" />
      <point x="60" y="77" />
      <point x="156" y="-8" />
    </contour>
  </outline>
</glyph>
<glyph name="H" format="2">
  <advance width="619" />
  <unicode hex="0048" />
  <outline>
    <contour>
      <point x="79" y="0" type="line" />
      <point x="151" y="0" type="line" />
      <point x="151" y="316" type="line" />
      <point x="468" y="316" type="line" />
      <point x="468" y="0" type="line" />
      <point x="541" y="0" type="line" />
      <point x="541" y="680" type="line" />
      <point x="468" y="680" type="line" />
      <point x="468" y="380" type="line" />
      <point x="151" y="380" type="line" />
      <point x="151" y="680" type="line" />
      <point x="79" y="680" type="line" />
    </contour>
  </outline>
</glyph>
<glyph name="J" format="2">
  <advance width="315" />
  <unicode hex="004A" />
  <anchor x="191" y="680" name="top" />
  <outline>
    <contour>
      <point x="31" y="0" type="line" />
      <point x="100" y="0" type="line" smooth="yes" />
      <point x="185" y="0" />
      <point x="229" y="47" />
      <point x="229" y="136" type="curve" smooth="yes" />
      <point x="229" y="680" type="line" />
      <point x="155" y="680" type="line" />
      <point x="155" y="144" type="line" smooth="yes" />
      <point x="155" y="90" />
      <point x="136" y="68" />
      <point x="88" y="68" type="curve" smooth="yes" />
      <point x="31" y="68" type="line" />
    </contour>
  </outline>
</glyph>
<glyph name="K" format="2">
  <advance width="614" />
  <unicode hex="004B" />
  <outline>
    <contour>
      <point x="84" y="0" type="line" />
      <point x="156" y="0" type="line" />
      <point x="156" y="188" type="line" />
      <point x="295" y="359" type="line" />
      <point x="502" y="0" type="line" />
      <point x="586" y="0" type="line" />
      <point x="341" y="415" type="line" />
      <point x="555" y="680" type="line" />
      <point x="470" y="680" type="line" />
      <point x="156" y="284" type="line" />
      <point x="156" y="680" type="line" />
      <point x="84" y="680" type="line" />
    </contour>
  </outline>
</glyph>
<glyph name="L" format="2">
  <advance width="536" />
  <unicode hex="004C" />
  <outline>
    <contour>
      <point x="84" y="0" type="line" />
      <point x="511" y="0" type="line" />
      <point x="511" y="69" type="line" />
      <point x="161" y="69" type="line" />
      <point x="161" y="680" type="line" />
      <point x="84" y="680" type="line" />
    </contour>
  </outline>
</glyph>
<glyph name="M" format="2">
  <advance width="777" />
  <unicode hex="004D" />
  <outline>
    <contour>
      <point x="84" y="0" type="line" />
      <point x="161" y="0" type="line" />
      <point x="161" y="527" type="line" />
      <point x="360" y="136" type="line" />
      <point x="418" y="136" type="line" />
      <point x="616" y="527" type="line" />
      <point x="616" y="0" type="line" />
      <point x="693" y="0" type="line" />
      <point x="693" y="680" type="line" />
      <point x="616" y="680" type="line" />
      <point x="389" y="226" type="line" />
      <point x="161" y="680" type="line" />
      <point x="84" y="680" type="line" />
    </contour>
  </outline>
</glyph>
<glyph name="N" format="2">
  <advance width="652" />
  <unicode hex="004E" />
  <anchor x="332" y="680" name="top" />
  <outline>
    <contour>
      <point x="79" y="0" type="line" />
      <point x="151" y="0" type="line" />
      <point x="151" y="547" type="line" />
      <point x="502" y="0" type="line" />
      <point x="574" y="0" type="line" />
      <point x="574" y="680" type="line" />
      <point x="502" y="680" type="line" />
      <point x="502" y="134" type="line" />
      <point x="151" y="680" type="line" />
      <point x="79" y="680" type="line" />
    </contour>
  </outline>
</glyph>
<glyph name="O" format="2">
  <advance width="600" />
  <unicode hex="004F" />
  <anchor x="301" y="680" name="top" />
  <outline>
    <contour>
      <point x="300" y="-8" type="curve" smooth="yes" />
      <point x="442" y="-8" />
      <point x="536" y="71" />
      <point x="536" y="252" type="curve" smooth="yes" />
      <point x="536" y="428" type="line" smooth="yes" />
      <point x="536" y="609" />
      <point x="443" y="689" />
      <point x="301" y="689" type="curve" smooth="yes" />
      <point x="157" y="689" />
      <point x="65" y="609" />
      <point x="65" y="428" type="curve" smooth="yes" />
      <point x="65" y="252" type="line" smooth="yes" />
      <point x="65" y="71" />
      <point x="156" y="-8" />
    </contour>
    <contour>
      <point x="137" y="248" type="curve" smooth="yes" />
      <point x="137" y="425" type="line" smooth="yes" />
      <point x="137" y="564" />
      <point x="191" y="623" />
      <point x="301" y="623" type="curve" smooth="yes" />
      <point x="410" y="623" />
      <point x="464" y="557" />
      <point x="464" y="425" type="curve" smooth="yes" />
      <point x="464" y="248" type="line" smooth="yes" />
      <point x="464" y="121" />
      <point x="410" y="58" />
      <point x="301" y="58" type="curve" smooth="yes" />
      <point x="193" y="58" />
      <point x="137" y="115" />
    </contour>
  </outline>
</glyph>
<glyph name="P" format="2">
  <advance width="601" />
  <unicode hex="0050" />
  <outline>
    <contour>
      <point x="84" y="0" type="line" />
      <point x="161" y="0" type="line" />
      <point x="161" y="279" type="line" />
      <point x="342" y="279" type="line" smooth="yes" />
      <point x="478" y="279" />
      <point x="561" y="353" />
      <point x="561" y="477" type="curve" smooth="yes" />
      <point x="561" y="609" />
      <point x="480" y="680" />
      <point x="342" y="680" type="curve" smooth="yes" />
      <point x="84" y="680" type="line" />
    </contour>
    <contour>
      <point x="161" y="347" type="line" />
      <point x="161" y="611" type="line" />
      <point x="337" y="611" type="line" smooth="yes" />
      <point x="433" y="611" />
      <point x="484" y="568" />
      <point x="484" y="476" type="curve" smooth="yes" />
      <point x="484" y="389" />
      <point x="433" y="347" />
      <point x="339" y="347" type="curve" smooth="yes" />
    </contour>
  </outline>
</glyph>
<glyph name="Q" format="2">
  <advance width="600" />
  <unicode hex="0051" />
  <anchor x="301" y="680" name="top" />
  <outline>
    <contour>
      <point x="443" y="-149" type="line" />
      <point x="499" y="-117" type="line" />
      <point x="425" y="19" type="line" />
      <point x="498" y="58" />
      <point x="536" y="136" />
      <point x="536" y="252" type="curve" smooth="yes" />
      <point x="536" y="428" type="line" smooth="yes" />
      <point x="536" y="609" />
      <point x="443" y="689" />
      <point x="301" y="689" type="curve" smooth="yes" />
      <point x="157" y="689" />
      <point x="65" y="609" />
      <point x="65" y="428" type="curve" smooth="yes" />
      <point x="65" y="252" type="line" smooth="yes" />
      <point x="65" y="71" />
      <point x="156" y="-8" />
      <point x="300" y="-8" type="curve" smooth="yes" />
      <point x="322" y="-8" />
      <point x="344" y="-6" />
      <point x="364" y="-2" type="curve" />
    </contour>
    <contour>
      <point x="137" y="248" type="curve" smooth="yes" />
      <point x="137" y="425" type="line" smooth="yes" />
      <point x="137" y="564" />
      <point x="191" y="623" />
      <point x="301" y="623" type="curve" smooth="yes" />
      <point x="410" y="623" />
      <point x="464" y="557" />
      <point x="464" y="425" type="curve" smooth="yes" />
      <point x="464" y="248" type="line" smooth="yes" />
      <point x="464" y="121" />
      <point x="410" y="58" />
      <point x="301" y="58" type="curve" smooth="yes" />
      <point x="193" y="58" />
      <point x="137" y="115" />
    </contour>
  </outline>
</glyph>
<glyph name="R" format="2">
  <advance width="606" />
  <unicode hex="0052" />
  <outline>
    <contour>
      <point x="84" y="0" type="line" />
      <point x="156" y="0" type="line" />
      <point x="156" y="298" type="line" />
      <point x="320" y="298" type="line" />
      <point x="472" y="0" type="line" />
      <point x="555" y="0" type="line" />
      <point x="396" y="305" type="line" />
      <point x="488" y="326" />
      <point x="541" y="391" />
      <point x="541" y="489" type="curve" smooth="yes" />
      <point x="541" y="610" />
      <point x="463" y="680" />
      <point x="336" y="680" type="curve" smooth="yes" />
      <point x="84" y="680" type="line" />
    </contour>
    <contour>
      <point x="156" y="361" type="line" />
      <point x="156" y="615" type="line" />
      <point x="330" y="615" type="line" smooth="yes" />
      <point x="419" y="615" />
      <point x="469" y="572" />
      <point x="469" y="488" type="curve" smooth="yes" />
      <point x="469" y="407" />
      <point x="419" y="361" />
      <point x="330" y="361" type="curve" smooth="yes" />
    </contour>
  </outline>
</glyph>
<glyph name="S" format="2">
  <advance width="559" />
  <unicode hex="0053" />
  <anchor x="279" y="680" name="top" />
  <outline>
    <contour>
      <point x="274" y="-6" type="curve" smooth="yes" />
      <point x="418" y="-6" />
      <point x="506" y="65" />
      <point x="506" y="189" type="curve" smooth="yes" />
      <point x="506" y="296" />
      <point x="444" y="353" />
      <point x="330" y="372" type="curve" smooth="yes" />
      <point x="252" y="386" type="line" smooth="yes" />
      <point x="171" y="401" />
      <point x="130" y="436" />
      <point x="130" y="503" type="curve" smooth="yes" />
      <point x="130" y="580" />
      <point x="185" y="626" />
      <point x="278" y="626" type="curve" smooth="yes" />
      <point x="368" y="626" />
      <point x="417" y="584" />
      <point x="425" y="500" type="curve" />
      <point x="425" y="478" type="line" />
      <point x="496" y="478" type="line" />
      <point x="496" y="500" type="line" />
      <point x="481" y="626" />
      <point x="400" y="689" />
      <point x="279" y="689" type="curve" smooth="yes" />
      <point x="148" y="689" />
      <point x="60" y="618" />
      <point x="60" y="498" type="curve" smooth="yes" />
      <point x="60" y="394" />
      <point x="122" y="341" />
      <point x="231" y="321" type="curve" smooth="yes" />
      <point x="308" y="309" type="line" smooth="yes" />
      <point x="393" y="293" />
      <point x="435" y="259" />
      <point x="435" y="184" type="curve" smooth="yes" />
      <point x="435" y="101" />
      <point x="380" y="57" />
      <point x="279" y="57" type="curve" smooth="yes" />
      <point x="180" y="57" />
      <point x="128" y="102" />
      <point x="118" y="191" type="curve" />
      <point x="118" y="200" type="line" />
      <point x="47" y="200" type="line" />
      <point x="47" y="191" type="line" />
      <point x="58" y="61" />
      <point x="137" y="-6" />
    </contour>
  </outline>
</glyph>
<glyph name="T" format="2">
  <advance width="517" />
  <unicode hex="0054" />
  <outline>
    <contour>
      <point x="221" y="0" type="line" />
      <point x="296" y="0" type="line" />
      <point x="296" y="612" type="line" />
      <point x="495" y="612" type="line" />
      <point x="495" y="680" type="line" />
      <point x="22" y="680" type="line" />
      <point x="22" y="612" type="line" />
      <point x="221" y="612" type="line" />
    </contour>
  </outline>
</glyph>
<glyph name="U" format="2">
  <advance width="625" />
  <unicode hex="0055" />
  <anchor x="313" y="680" name="top" />
  <outline>
    <contour>
      <point x="314" y="-6" type="curve" smooth="yes" />
      <point x="446" y="-6" />
      <point x="546" y="88" />
      <point x="546" y="221" type="curve" smooth="yes" />
      <point x="546" y="680" type="line" />
      <point x="475" y="680" type="line" />
      <point x="475" y="228" type="line" smooth="yes" />
      <point x="475" y="124" />
      <point x="412" y="58" />
      <point x="314" y="58" type="curve" smooth="yes" />
      <point x="215" y="58" />
      <point x="152" y="124" />
      <point x="152" y="228" type="curve" smooth="yes" />
      <point x="152" y="680" type="line" />
      <point x="79" y="680" type="line" />
      <point x="79" y="221" type="line" smooth="yes" />
      <point x="79" y="88" />
      <point x="181" y="-6" />
    </contour>
  </outline>
</glyph>
<glyph name="V" format="2">
  <advance width="537" />
  <unicode hex="0056" />
  <outline>
    <contour>
      <point x="239" y="0" type="line" />
      <point x="298" y="0" type="line" />
      <point x="519" y="680" type="line" />
      <point x="445" y="680" type="line" />
      <point x="269" y="116" type="line" />
      <point x="93" y="680" type="line" />
      <point x="18" y="680" type="line" />
    </contour>
  </outline>
</glyph>
<glyph name="W" format="2">
  <advance width="849" />
  <unicode hex="0057" />
  <outline>
    <contour>
      <point x="203" y="0" type="line" />
      <point x="275" y="0" type="line" />
      <point x="425" y="584" type="line" />
      <point x="578" y="0" type="line" />
      <point x="649" y="0" type="line" />
      <point x="826" y="680" type="line" />
      <point x="754" y="680" type="line" />
      <point x="616" y="119" type="line" />
      <point x="475" y="680" type="line" />
      <point x="377" y="680" type="line" />
      <point x="241" y="119" type="line" />
      <point x="98" y="680" type="line" />
      <point x="23" y="680" type="line" />
    </contour>
  </outline>
</glyph>
<glyph name="X" format="2">
  <advance width="573" />
  <unicode hex="0058" />
  <outline>
    <contour>
      <point x="7" y="0" type="line" />
      <point x="94" y="0" type="line" />
      <point x="285" y="294" type="line" />
      <point x="476" y="0" type="line" />
      <point x="567" y="0" type="line" />
      <point x="331" y="357" type="line" />
      <point x="545" y="680" type="line" />
      <point x="457" y="680" type="line" />
      <point x="288" y="415" type="line" />
      <point x="116" y="680" type="line" />
      <point x="26" y="680" type="line" />
      <point x="241" y="354" type="line" />
    </contour>
  </outline>
</glyph>
<glyph name="Y" format="2">
  <advance width="510" />
  <unicode hex="0059" />
  <anchor x="259" y="680" name="top" />
  <outline>
    <contour>
      <point x="219" y="0" type="line" />
      <point x="291" y="0" type="line" />
      <point x="291" y="285" type="line" />
      <point x="494" y="680" type="line" />
      <point x="416" y="680" type="line" />
      <point x="254" y="354" type="line" />
      <point x="94" y="680" type="line" />
      <point x="16" y="680" type="line" />
      <point x="219" y="286" type="line" />
    </contour>
  </outline>
</glyph>
<glyph name="Z" format="2">
  <advance width="532" />
  <unicode hex="005A" />
  <anchor x="264" y="680" name="top" />
  <outline>
    <contour>
      <point x="49" y="0" type="line" />
      <point x="483" y="0" type="line" />
      <point x="483" y="65" type="line" />
      <point x="131" y="65" type="line" />
      <point x="479" y="615" type="line" />
      <point x="479" y="680" type="line" />
      <point x="62" y="680" type="line" />
      <point x="62" y="615" type="line" />
      <point x="398" y="615" type="line" />
      <point x="49" y="65" type="line" />
    </contour>
  </outline>
</glyph>
<glyph name="bracketleft" format="2">
  <advance width="290" />
  <unicode hex="005B" />
  <outline>
    <contour>
      <point x="79" y="-83" type="line" />
      <point x="233" y="-83" type="line" />
      <point x="233" y="-17" type="line" />
      <point x="148" y="-17" type="line" />
      <point x="148" y="664" type="line" />
      <point x="233" y="664" type="line" />
      <point x="233" y="729" type="line" />
      <point x="79" y="729" type="line" />
    </contour>
  </outline>
</glyph>
<glyph name="backslash" format="2">
  <advance width="395" />
  <unicode hex="005C" />
  <outline>
    <contour>
      <point x="277" y="-10" type="line" />
      <point x="340" y="-10" type="line" />
      <point x="119" y="681" type="line" />
      <point x="56" y="681" type="line" />
    </contour>
  </outline>
</glyph>
<glyph name="bracketright" format="2">
  <advance width="290" />
  <unicode hex="005D" />
  <outline>
    <contour>
      <point x="58" y="-83" type="line" />
      <point x="212" y="-83" type="line" />
      <point x="212" y="729" type="line" />
      <point x="58" y="729" type="line" />
      <point x="58" y="664" type="line" />
      <point x="142" y="664" type="line" />
      <point x="142" y="-17" type="line" />
      <point x="58" y="-17" type="line" />
    </contour>
  </outline>
</glyph>
<glyph name="asciicircum" format="2">
  <advance width="503" />
  <unicode hex="005E" />
  <outline>
    <contour>
      <point x="52" y="280" type="line" />
      <point x="114" y="280" type="line" />
      <point x="251" y="612" type="line" />
      <point x="390" y="280" type="line" />
      <point x="452" y="280" type="line" />
      <point x="283" y="681" type="line" />
      <point x="220" y="681" type="line" />
    </contour>
  </outline>
</glyph>
<glyph name="underscore" format="2">
  <advance width="449" />
  <unicode hex="005F" />
  <outline>
    <contour>
      <point x="0" y="-102" type="line" />
      <point x="450" y="-102" type="line" />
      <point x="450" y="-53" type="line" />
      <point x="0" y="-53" type="line" />
    </contour>
  </outline>
</glyph>
<glyph name="a" format="2">
  <advance width="506" />
  <unicode hex="0061" />
  <anchor x="247" y="499" name="top" />
  <outline>
    <contour>
      <point x="224" y="-6" type="curve" smooth="yes" />
      <point x="287" y="-6" />
      <point x="331" y="13" />
      <point x="362" y="53" type="curve" />
      <point x="362" y="0" type="line" />
      <point x="428" y="0" type="line" />
      <point x="428" y="340" type="line" smooth="yes" />
      <point x="428" y="449" />
      <point x="364" y="506" />
      <point x="247" y="506" type="curve" smooth="yes" />
      <point x="139" y="506" />
      <point x="73" y="450" />
      <point x="73" y="366" type="curve" smooth="yes" />
      <point x="73" y="361" type="line" />
      <point x="138" y="361" type="line" />
      <point x="138" y="364" type="line" smooth="yes" />
      <point x="138" y="417" />
      <point x="180" y="450" />
      <point x="248" y="450" type="curve" smooth="yes" />
      <point x="321" y="450" />
      <point x="360" y="414" />
      <point x="360" y="341" type="curve" smooth="yes" />
      <point x="360" y="284" type="line" />
      <point x="226" y="284" type="line" smooth="yes" />
      <point x="120" y="284" />
      <point x="58" y="229" />
      <point x="58" y="140" type="curve" smooth="yes" />
      <point x="58" y="44" />
      <point x="118" y="-6" />
    </contour>
    <contour>
      <point x="126" y="141" type="curve" smooth="yes" />
      <point x="126" y="203" />
      <point x="162" y="235" />
      <point x="235" y="235" type="curve" smooth="yes" />
      <point x="360" y="235" type="line" />
      <point x="360" y="169" type="line" smooth="yes" />
      <point x="360" y="88" />
      <point x="323" y="48" />
      <point x="234" y="48" type="curve" smooth="yes" />
      <point x="161" y="48" />
      <point x="126" y="79" />
    </contour>
  </outline>
</glyph>
<glyph name="b" format="2">
  <advance width="529" />
  <unicode hex="0062" />
  <outline>
    <contour>
      <point x="296" y="-7" type="curve" smooth="yes" />
      <point x="401" y="-7" />
      <point x="476" y="63" />
      <point x="476" y="207" type="curve" smooth="yes" />
      <point x="476" y="295" type="line" smooth="yes" />
      <point x="476" y="438" />
      <point x="401" y="509" />
      <point x="292" y="509" type="curve" smooth="yes" />
      <point x="230" y="509" />
      <point x="181" y="480" />
      <point x="153" y="431" type="curve" />
      <point x="153" y="680" type="line" />
      <point x="82" y="680" type="line" />
      <point x="82" y="0" type="line" />
      <point x="153" y="0" type="line" />
      <point x="153" y="66" type="line" />
      <point x="182" y="18" />
      <point x="230" y="-7" />
    </contour>
    <contour>
      <point x="153" y="208" type="curve" smooth="yes" />
      <point x="153" y="290" type="line" smooth="yes" />
      <point x="153" y="383" />
      <point x="198" y="443" />
      <point x="281" y="443" type="curve" smooth="yes" />
      <point x="362" y="443" />
      <point x="403" y="392" />
      <point x="403" y="291" type="curve" smooth="yes" />
      <point x="403" y="211" type="line" smooth="yes" />
      <point x="403" y="109" />
      <point x="362" y="57" />
      <point x="284" y="57" type="curve" smooth="yes" />
      <point x="200" y="57" />
      <point x="153" y="118" />
    </contour>
  </outline>
</glyph>
<glyph name="c" format="2">
  <advance width="509" />
  <unicode hex="0063" />
  <outline>
    <contour>
      <point x="262" y="-7" type="curve" smooth="yes" />
      <point x="379" y="-7" />
      <point x="453" y="59" />
      <point x="453" y="164" type="curve" smooth="yes" />
      <point x="453" y="167" type="line" />
      <point x="383" y="167" type="line" />
      <point x="383" y="164" type="line" smooth="yes" />
      <point x="383" y="95" />
      <point x="338" y="57" />
      <point x="262" y="57" type="curve" smooth="yes" />
      <point x="176" y="57" />
      <point x="128" y="101" />
      <point x="128" y="211" type="curve" smooth="yes" />
      <point x="128" y="291" type="line" smooth="yes" />
      <point x="128" y="401" />
      <point x="177" y="443" />
      <point x="263" y="443" type="curve" smooth="yes" />
      <point x="339" y="443" />
      <point x="383" y="404" />
      <point x="383" y="337" type="curve" smooth="yes" />
      <point x="383" y="332" type="line" />
      <point x="453" y="332" type="line" />
      <point x="453" y="337" type="line" smooth="yes" />
      <point x="453" y="442" />
      <point x="379" y="509" />
      <point x="261" y="509" type="curve" smooth="yes" />
      <point x="136" y="509" />
      <point x="56" y="440" />
      <point x="56" y="294" type="curve" smooth="yes" />
      <point x="56" y="207" type="line" smooth="yes" />
      <point x="56" y="62" />
      <point x="135" y="-7" />
    </contour>
  </outline>
</glyph>
<glyph name="d" format="2">
  <advance width="503" />
  <unicode hex="0064" />
  <outline>
    <contour>
      <point x="227" y="-6" type="curve" smooth="yes" />
      <point x="290" y="-6" />
      <point x="335" y="18" />
      <point x="362" y="66" type="curve" />
      <point x="362" y="0" type="line" />
      <point x="429" y="0" type="line" />
      <point x="429" y="680" type="line" />
      <point x="362" y="680" type="line" />
      <point x="362" y="429" type="line" />
      <point x="333" y="480" />
      <point x="289" y="506" />
      <point x="228" y="506" type="curve" smooth="yes" />
      <point x="128" y="506" />
      <point x="58" y="442" />
      <point x="58" y="301" type="curve" smooth="yes" />
      <point x="58" y="199" type="line" smooth="yes" />
      <point x="58" y="59" />
      <point x="129" y="-6" />
    </contour>
    <contour>
      <point x="126" y="203" type="curve" smooth="yes" />
      <point x="126" y="297" type="line" smooth="yes" />
      <point x="126" y="395" />
      <point x="164" y="445" />
      <point x="240" y="445" type="curve" smooth="yes" />
      <point x="321" y="445" />
      <point x="362" y="384" />
      <point x="362" y="291" type="curve" smooth="yes" />
      <point x="362" y="204" type="line" smooth="yes" />
      <point x="362" y="115" />
      <point x="319" y="54" />
      <point x="237" y="54" type="curve" smooth="yes" />
      <point x="164" y="54" />
      <point x="126" y="104" />
    </contour>
  </outline>
</glyph>
<glyph name="e" format="2">
  <advance width="495" />
  <unicode hex="0065" />
  <anchor x="248" y="506" name="top" />
  <outline>
    <contour>
      <point x="250" y="-6" type="curve" smooth="yes" />
      <point x="364" y="-6" />
      <point x="434" y="57" />
      <point x="434" y="149" type="curve" smooth="yes" />
      <point x="434" y="154" type="line" />
      <point x="368" y="154" type="line" />
      <point x="368" y="151" type="line" smooth="yes" />
      <point x="368" y="91" />
      <point x="326" y="54" />
      <point x="255" y="54" type="curve" smooth="yes" />
      <point x="174" y="54" />
      <point x="125" y="93" />
      <point x="125" y="207" type="curve" smooth="yes" />
      <point x="125" y="237" type="line" />
      <point x="438" y="237" type="line" />
      <point x="438" y="295" type="line" smooth="yes" />
      <point x="438" y="438" />
      <point x="362" y="506" />
      <point x="248" y="506" type="curve" smooth="yes" />
      <point x="135" y="506" />
      <point x="58" y="438" />
      <point x="58" y="295" type="curve" smooth="yes" />
      <point x="58" y="209" type="line" smooth="yes" />
      <point x="58" y="63" />
      <point x="133" y="-6" />
    </contour>
    <contour>
      <point x="125" y="287" type="line" />
      <point x="125" y="297" type="line" smooth="yes" />
      <point x="125" y="407" />
      <point x="173" y="445" />
      <point x="248" y="445" type="curve" smooth="yes" />
      <point x="325" y="445" />
      <point x="370" y="408" />
      <point x="370" y="304" type="curve" smooth="yes" />
      <point x="370" y="287" type="line" />
    </contour>
  </outline>
</glyph>
<glyph name="f" format="2">
  <advance width="317" />
  <unicode hex="0066" />
  <outline>
    <contour>
      <point x="107" y="0" type="line" />
      <point x="178" y="0" type="line" />
      <point x="178" y="445" type="line" />
      <point x="290" y="445" type="line" />
      <point x="290" y="500" type="line" />
      <point x="178" y="500" type="line" />
      <point x="178" y="554" type="line" smooth="yes" />
      <point x="178" y="601" />
      <point x="200" y="623" />
      <point x="247" y="623" type="curve" smooth="yes" />
      <point x="290" y="623" type="line" />
      <point x="290" y="680" type="line" />
      <point x="235" y="680" type="line" smooth="yes" />
      <point x="154" y="680" />
      <point x="107" y="632" />
      <point x="107" y="551" type="curve" smooth="yes" />
      <point x="107" y="500" type="line" />
      <point x="41" y="500" type="line" />
      <point x="41" y="445" type="line" />
      <point x="107" y="445" type="line" />
    </contour>
  </outline>
</glyph>
<glyph name="g" format="2">
  <advance width="521" />
  <unicode hex="0067" />
  <outline>
    <contour>
      <point x="245" y="-156" type="curve" smooth="yes" />
      <point x="368" y="-156" />
      <point x="439" y="-83" />
      <point x="439" y="40" type="curve" smooth="yes" />
      <point x="439" y="503" type="line" />
      <point x="368" y="503" type="line" />
      <point x="368" y="435" type="line" />
      <point x="339" y="485" />
      <point x="291" y="510" />
      <point x="229" y="510" type="curve" smooth="yes" />
      <point x="124" y="510" />
      <point x="52" y="442" />
      <point x="52" y="300" type="curve" smooth="yes" />
      <point x="52" y="238" type="line" smooth="yes" />
      <point x="52" y="95" />
      <point x="125" y="28" />
      <point x="229" y="28" type="curve" smooth="yes" />
      <point x="294" y="28" />
      <point x="340" y="53" />
      <point x="368" y="101" type="curve" />
      <point x="368" y="35" type="line" smooth="yes" />
      <point x="368" y="-53" />
      <point x="328" y="-95" />
      <point x="245" y="-95" type="curve" smooth="yes" />
      <point x="179" y="-95" />
      <point x="137" y="-68" />
      <point x="131" y="-23" type="curve" />
      <point x="61" y="-23" type="line" />
      <point x="67" y="-107" />
      <point x="134" y="-156" />
    </contour>
    <contour>
      <point x="123" y="242" type="curve" smooth="yes" />
      <point x="123" y="295" type="line" smooth="yes" />
      <point x="123" y="396" />
      <point x="163" y="447" />
      <point x="242" y="447" type="curve" smooth="yes" />
      <point x="325" y="447" />
      <point x="368" y="387" />
      <point x="368" y="293" type="curve" smooth="yes" />
      <point x="368" y="241" type="line" smooth="yes" />
      <point x="368" y="151" />
      <point x="324" y="91" />
      <point x="239" y="91" type="curve" smooth="yes" />
      <point x="163" y="91" />
      <point x="123" y="141" />
    </contour>
  </outline>
</glyph>
<glyph name="h" format="2">
  <advance width="526" />
  <unicode hex="0068" />
  <outline>
    <contour>
      <point x="82" y="0" type="line" />
      <point x="148" y="0" type="line" />
      <point x="148" y="318" type="line" smooth="yes" />
      <point x="148" y="399" />
      <point x="195" y="445" />
      <point x="266" y="445" type="curve" smooth="yes" />
      <point x="339" y="445" />
      <point x="381" y="401" />
      <point x="381" y="318" type="curve" smooth="yes" />
      <point x="381" y="0" type="line" />
      <point x="449" y="0" type="line" />
      <point x="449" y="328" type="line" smooth="yes" />
      <point x="449" y="442" />
      <point x="387" y="505" />
      <point x="283" y="505" type="curve" smooth="yes" />
      <point x="224" y="505" />
      <point x="178" y="483" />
      <point x="148" y="439" type="curve" />
      <point x="148" y="680" type="line" />
      <point x="82" y="680" type="line" />
    </contour>
  </outline>
</glyph>
<glyph name="i" format="2">
  <advance width="219" />
  <unicode hex="0069" />
  <anchor x="110" y="499" name="top" />
  <outline>
    <contour>
      <point x="76" y="0" type="line" />
      <point x="143" y="0" type="line" />
      <point x="143" y="499" type="line" />
      <point x="76" y="499" type="line" />
    </contour>
    <contour>
      <point x="74" y="592" type="line" />
      <point x="145" y="592" type="line" />
      <point x="145" y="680" type="line" />
      <point x="74" y="680" type="line" />
    </contour>
  </outline>
</glyph>
<glyph name="j" format="2">
  <advance width="216" />
  <unicode hex="006A" />
  <outline>
    <contour>
      <point x="-30" y="-150" type="line" />
      <point x="17" y="-150" type="line" smooth="yes" />
      <point x="98" y="-150" />
      <point x="140" y="-103" />
      <point x="140" y="-18" type="curve" smooth="yes" />
      <point x="140" y="499" type="line" />
      <point x="74" y="499" type="line" />
      <point x="74" y="-14" type="line" smooth="yes" />
      <point x="74" y="-66" />
      <point x="55" y="-88" />
      <point x="11" y="-88" type="curve" smooth="yes" />
      <point x="-30" y="-88" type="line" />
    </contour>
    <contour>
      <point x="72" y="591" type="line" />
      <point x="142" y="591" type="line" />
      <point x="142" y="680" type="line" />
      <point x="72" y="680" type="line" />
    </contour>
  </outline>
</glyph>
<glyph name="k" format="2">
  <advance width="503" />
  <unicode hex="006B" />
  <outline>
    <contour>
      <point x="82" y="0" type="line" />
      <point x="148" y="0" type="line" />
      <point x="148" y="149" type="line" />
      <point x="243" y="259" type="line" />
      <point x="394" y="0" type="line" />
      <point x="475" y="0" type="line" />
      <point x="287" y="311" type="line" />
      <point x="448" y="499" type="line" />
      <point x="367" y="499" type="line" />
      <point x="148" y="234" type="line" />
      <point x="148" y="680" type="line" />
      <point x="82" y="680" type="line" />
    </contour>
  </outline>
</glyph>
<glyph name="l" format="2">
  <advance width="286" />
  <unicode hex="006C" />
  <outline>
    <contour>
      <point x="203" y="0" type="curve" smooth="yes" />
      <point x="250" y="0" type="line" />
      <point x="250" y="61" type="line" />
      <point x="210" y="61" type="line" smooth="yes" />
      <point x="166" y="61" />
      <point x="146" y="83" />
      <point x="146" y="135" type="curve" smooth="yes" />
      <point x="146" y="680" type="line" />
      <point x="80" y="680" type="line" />
      <point x="80" y="131" type="line" smooth="yes" />
      <point x="80" y="46" />
      <point x="122" y="0" />
    </contour>
  </outline>
</glyph>
<glyph name="m" format="2">
  <advance width="824" />
  <unicode hex="006D" />
  <outline>
    <contour>
      <point x="82" y="0" type="line" />
      <point x="148" y="0" type="line" />
      <point x="148" y="318" type="line" smooth="yes" />
      <point x="148" y="392" />
      <point x="188" y="445" />
      <point x="266" y="445" type="curve" smooth="yes" />
      <point x="346" y="445" />
      <point x="380" y="393" />
      <point x="380" y="318" type="curve" smooth="yes" />
      <point x="380" y="0" type="line" />
      <point x="449" y="0" type="line" />
      <point x="449" y="321" type="line" smooth="yes" />
      <point x="449" y="396" />
      <point x="488" y="445" />
      <point x="566" y="445" type="curve" smooth="yes" />
      <point x="646" y="445" />
      <point x="679" y="393" />
      <point x="679" y="318" type="curve" smooth="yes" />
      <point x="679" y="0" type="line" />
      <point x="747" y="0" type="line" />
      <point x="747" y="328" type="line" smooth="yes" />
      <point x="747" y="437" />
      <point x="690" y="505" />
      <point x="578" y="505" type="curve" smooth="yes" />
      <point x="512" y="505" />
      <point x="460" y="479" />
      <point x="426" y="421" type="curve" />
      <point x="397" y="481" />
      <point x="349" y="505" />
      <point x="283" y="505" type="curve" smooth="yes" />
      <point x="230" y="505" />
      <point x="177" y="484" />
      <point x="147" y="439" type="curve" />
      <point x="147" y="499" type="line" />
      <point x="82" y="499" type="line" />
    </contour>
  </outline>
</glyph>
<glyph name="n" format="2">
  <advance width="544" />
  <unicode hex="006E" />
  <anchor x="237" y="499" name="top" />
  <outline>
    <contour>
      <point x="82" y="0" type="line" />
      <point x="153" y="0" type="line" />
      <point x="153" y="312" type="line" smooth="yes" />
      <point x="153" y="394" />
      <point x="201" y="442" />
      <point x="276" y="442" type="curve" smooth="yes" />
      <point x="352" y="442" />
      <point x="395" y="398" />
      <point x="395" y="315" type="curve" smooth="yes" />
      <point x="395" y="0" type="line" />
      <point x="467" y="0" type="line" />
      <point x="467" y="325" type="line" smooth="yes" />
      <point x="467" y="440" />
      <point x="404" y="506" />
      <point x="295" y="506" type="curve" smooth="yes" />
      <point x="233" y="506" />
      <point x="183" y="483" />
      <point x="152" y="438" type="curve" />
      <point x="152" y="500" type="line" />
      <point x="82" y="500" type="line" />
    </contour>
  </outline>
</glyph>
<glyph name="o" format="2">
  <advance width="497" />
  <unicode hex="006F" />
  <anchor x="250" y="499" name="top" />
  <outline>
    <contour>
      <point x="250" y="-6" type="curve" smooth="yes" />
      <point x="364" y="-6" />
      <point x="440" y="57" />
      <point x="440" y="199" type="curve" smooth="yes" />
      <point x="440" y="301" type="line" smooth="yes" />
      <point x="440" y="443" />
      <point x="364" y="506" />
      <point x="250" y="506" type="curve" smooth="yes" />
      <point x="133" y="506" />
      <point x="58" y="443" />
      <point x="58" y="301" type="curve" smooth="yes" />
      <point x="58" y="199" type="line" smooth="yes" />
      <point x="58" y="57" />
      <point x="133" y="-6" />
    </contour>
    <contour>
      <point x="125" y="203" type="curve" smooth="yes" />
      <point x="125" y="297" type="line" smooth="yes" />
      <point x="125" y="407" />
      <point x="173" y="445" />
      <point x="250" y="445" type="curve" smooth="yes" />
      <point x="325" y="445" />
      <point x="372" y="407" />
      <point x="372" y="297" type="curve" smooth="yes" />
      <point x="372" y="203" type="line" smooth="yes" />
      <point x="372" y="93" />
      <point x="325" y="54" />
      <point x="250" y="54" type="curve" smooth="yes" />
      <point x="173" y="54" />
      <point x="125" y="93" />
    </contour>
  </outline>
</glyph>
<glyph name="p" format="2">
  <advance width="529" />
  <unicode hex="0070" />
  <outline>
    <contour>
      <point x="82" y="-153" type="line" />
      <point x="153" y="-153" type="line" />
      <point x="153" y="66" type="line" />
      <point x="182" y="17" />
      <point x="230" y="-7" />
      <point x="296" y="-7" type="curve" smooth="yes" />
      <point x="401" y="-7" />
      <point x="476" y="62" />
      <point x="476" y="207" type="curve" smooth="yes" />
      <point x="476" y="295" type="line" smooth="yes" />
      <point x="476" y="439" />
      <point x="401" y="508" />
      <point x="292" y="508" type="curve" smooth="yes" />
      <point x="230" y="508" />
      <point x="181" y="480" />
      <point x="153" y="431" type="curve" />
      <point x="153" y="500" type="line" />
      <point x="82" y="500" type="line" />
    </contour>
    <contour>
      <point x="153" y="208" type="curve" smooth="yes" />
      <point x="153" y="290" type="line" smooth="yes" />
      <point x="153" y="383" />
      <point x="198" y="443" />
      <point x="281" y="443" type="curve" smooth="yes" />
      <point x="362" y="443" />
      <point x="403" y="392" />
      <point x="403" y="290" type="curve" smooth="yes" />
      <point x="403" y="211" type="line" smooth="yes" />
      <point x="403" y="109" />
      <point x="362" y="57" />
      <point x="284" y="57" type="curve" smooth="yes" />
      <point x="200" y="57" />
      <point x="153" y="118" />
    </contour>
  </outline>
</glyph>
<glyph name="q" format="2">
  <advance width="506" />
  <unicode hex="0071" />
  <outline>
    <contour>
      <point x="357" y="-150" type="line" />
      <point x="424" y="-150" type="line" />
      <point x="424" y="499" type="line" />
      <point x="357" y="499" type="line" />
      <point x="357" y="429" type="line" />
      <point x="330" y="479" />
      <point x="285" y="505" />
      <point x="227" y="505" type="curve" smooth="yes" />
      <point x="125" y="505" />
      <point x="53" y="442" />
      <point x="53" y="301" type="curve" smooth="yes" />
      <point x="53" y="199" type="line" smooth="yes" />
      <point x="53" y="57" />
      <point x="124" y="-6" />
      <point x="222" y="-6" type="curve" smooth="yes" />
      <point x="285" y="-6" />
      <point x="329" y="18" />
      <point x="357" y="66" type="curve" />
    </contour>
    <contour>
      <point x="121" y="203" type="curve" smooth="yes" />
      <point x="121" y="296" type="line" smooth="yes" />
      <point x="121" y="395" />
      <point x="159" y="445" />
      <point x="235" y="445" type="curve" smooth="yes" />
      <point x="316" y="445" />
      <point x="357" y="384" />
      <point x="357" y="291" type="curve" smooth="yes" />
      <point x="357" y="204" type="line" smooth="yes" />
      <point x="357" y="115" />
      <point x="314" y="54" />
      <point x="232" y="54" type="curve" smooth="yes" />
      <point x="159" y="54" />
      <point x="121" y="104" />
    </contour>
  </outline>
</glyph>
<glyph name="r" format="2">
  <advance width="342" />
  <unicode hex="0072" />
  <outline>
    <contour>
      <point x="82" y="0" type="line" />
      <point x="153" y="0" type="line" />
      <point x="153" y="309" type="line" smooth="yes" />
      <point x="153" y="390" />
      <point x="204" y="442" />
      <point x="276" y="442" type="curve" smooth="yes" />
      <point x="295" y="442" />
      <point x="313" y="439" />
      <point x="329" y="434" type="curve" />
      <point x="329" y="504" type="line" />
      <point x="317" y="506" />
      <point x="305" y="507" />
      <point x="292" y="507" type="curve" smooth="yes" />
      <point x="231" y="507" />
      <point x="181" y="484" />
      <point x="152" y="433" type="curve" />
      <point x="152" y="500" type="line" />
      <point x="82" y="500" type="line" />
    </contour>
  </outline>
</glyph>
<glyph name="s" format="2">
  <advance width="464" />
  <unicode hex="0073" />
  <anchor x="227" y="499" name="top" />
  <outline>
    <contour>
      <point x="226" y="-6" type="curve" smooth="yes" />
      <point x="340" y="-6" />
      <point x="414" y="48" />
      <point x="414" y="142" type="curve" smooth="yes" />
      <point x="414" y="221" />
      <point x="368" y="259" />
      <point x="270" y="278" type="curve" smooth="yes" />
      <point x="205" y="290" type="line" smooth="yes" />
      <point x="145" y="299" />
      <point x="118" y="322" />
      <point x="118" y="366" type="curve" smooth="yes" />
      <point x="118" y="418" />
      <point x="160" y="451" />
      <point x="229" y="451" type="curve" smooth="yes" />
      <point x="300" y="451" />
      <point x="342" y="418" />
      <point x="342" y="366" type="curve" smooth="yes" />
      <point x="342" y="364" type="line" />
      <point x="408" y="364" type="line" />
      <point x="408" y="369" type="line" smooth="yes" />
      <point x="408" y="450" />
      <point x="337" y="506" />
      <point x="227" y="506" type="curve" smooth="yes" />
      <point x="125" y="506" />
      <point x="53" y="450" />
      <point x="53" y="364" type="curve" smooth="yes" />
      <point x="53" y="287" />
      <point x="95" y="249" />
      <point x="193" y="232" type="curve" smooth="yes" />
      <point x="255" y="220" type="line" smooth="yes" />
      <point x="320" y="209" />
      <point x="349" y="189" />
      <point x="349" y="139" type="curve" smooth="yes" />
      <point x="349" y="83" />
      <point x="304" y="51" />
      <point x="229" y="51" type="curve" smooth="yes" />
      <point x="156" y="51" />
      <point x="111" y="85" />
      <point x="111" y="140" type="curve" smooth="yes" />
      <point x="111" y="144" type="line" />
      <point x="45" y="144" type="line" />
      <point x="45" y="139" type="line" smooth="yes" />
      <point x="45" y="51" />
      <point x="116" y="-6" />
    </contour>
  </outline>
</glyph>
<glyph name="t" format="2">
  <advance width="355" />
  <unicode hex="0074" />
  <outline>
    <contour>
      <point x="246" y="0" type="curve" smooth="yes" />
      <point x="298" y="0" type="line" />
      <point x="298" y="63" type="line" />
      <point x="258" y="63" type="line" smooth="yes" />
      <point x="212" y="63" />
      <point x="189" y="85" />
      <point x="189" y="134" type="curve" smooth="yes" />
      <point x="189" y="445" type="line" />
      <point x="307" y="445" type="line" />
      <point x="307" y="500" type="line" />
      <point x="189" y="500" type="line" />
      <point x="189" y="646" type="line" />
      <point x="117" y="614" type="line" />
      <point x="117" y="500" type="line" />
      <point x="36" y="500" type="line" />
      <point x="36" y="445" type="line" />
      <point x="117" y="445" type="line" />
      <point x="117" y="130" type="line" smooth="yes" />
      <point x="117" y="47" />
      <point x="163" y="0" />
    </contour>
  </outline>
</glyph>
<glyph name="u" format="2">
  <advance width="542" />
  <unicode hex="0075" />
  <anchor x="258" y="499" name="top" />
  <outline>
    <contour>
      <point x="266" y="-6" type="curve" smooth="yes" />
      <point x="394" y="-6" />
      <point x="460" y="63" />
      <point x="460" y="188" type="curve" smooth="yes" />
      <point x="460" y="500" type="line" />
      <point x="388" y="500" type="line" />
      <point x="388" y="197" type="line" smooth="yes" />
      <point x="388" y="103" />
      <point x="353" y="58" />
      <point x="267" y="58" type="curve" smooth="yes" />
      <point x="181" y="58" />
      <point x="146" y="104" />
      <point x="146" y="197" type="curve" smooth="yes" />
      <point x="146" y="500" type="line" />
      <point x="75" y="500" type="line" />
      <point x="75" y="188" type="line" smooth="yes" />
      <point x="75" y="63" />
      <point x="140" y="-6" />
    </contour>
  </outline>
</glyph>
<glyph name="v" format="2">
  <advance width="455" />
  <unicode hex="0076" />
  <outline>
    <contour>
      <point x="199" y="0" type="line" />
      <point x="258" y="0" type="line" />
      <point x="430" y="499" type="line" />
      <point x="358" y="499" type="line" />
      <point x="228" y="98" type="line" />
      <point x="99" y="499" type="line" />
      <point x="25" y="499" type="line" />
    </contour>
  </outline>
</glyph>
<glyph name="w" format="2">
  <advance width="703" />
  <unicode hex="0077" />
  <outline>
    <contour>
      <point x="165" y="0" type="line" />
      <point x="225" y="0" type="line" />
      <point x="351" y="403" type="line" />
      <point x="477" y="0" type="line" />
      <point x="538" y="0" type="line" />
      <point x="690" y="499" type="line" />
      <point x="617" y="499" type="line" />
      <point x="503" y="99" type="line" />
      <point x="379" y="499" type="line" />
      <point x="323" y="499" type="line" />
      <point x="199" y="99" type="line" />
      <point x="87" y="499" type="line" />
      <point x="13" y="499" type="line" />
    </contour>
  </outline>
</glyph>
<glyph name="x" format="2">
  <advance width="462" />
  <unicode hex="0078" />
  <outline>
    <contour>
      <point x="28" y="0" type="line" />
      <point x="105" y="0" type="line" />
      <point x="231" y="199" type="line" />
      <point x="357" y="0" type="line" />
      <point x="434" y="0" type="line" />
      <point x="268" y="261" type="line" />
      <point x="425" y="500" type="line" />
      <point x="348" y="500" type="line" />
      <point x="232" y="317" type="line" />
      <point x="115" y="500" type="line" />
      <point x="38" y="500" type="line" />
      <point x="193" y="257" type="line" />
    </contour>
  </outline>
</glyph>
<glyph name="y" format="2">
  <advance width="453" />
  <unicode hex="0079" />
  <anchor x="227" y="499" name="top" />
  <outline>
    <contour>
      <point x="77" y="-150" type="line" />
      <point x="106" y="-150" type="line" smooth="yes" />
      <point x="174" y="-150" />
      <point x="215" y="-121" />
      <point x="238" y="-54" type="curve" smooth="yes" />
      <point x="429" y="499" type="line" />
      <point x="359" y="499" type="line" />
      <point x="228" y="102" type="line" />
      <point x="98" y="499" type="line" />
      <point x="24" y="499" type="line" />
      <point x="197" y="5" type="line" />
      <point x="186" y="-26" type="line" smooth="yes" />
      <point x="171" y="-70" />
      <point x="150" y="-88" />
      <point x="101" y="-88" type="curve" smooth="yes" />
      <point x="77" y="-88" type="line" />
    </contour>
  </outline>
</glyph>
<glyph name="z" format="2">
  <advance width="448" />
  <unicode hex="007A" />
  <anchor x="224" y="499" name="top" />
  <outline>
    <contour>
      <point x="58" y="0" type="line" />
      <point x="391" y="0" type="line" />
      <point x="391" y="63" type="line" />
      <point x="133" y="63" type="line" />
      <point x="391" y="438" type="line" />
      <point x="391" y="499" type="line" />
      <point x="58" y="499" type="line" />
      <point x="58" y="438" type="line" />
      <point x="315" y="438" type="line" />
      <point x="58" y="63" type="line" />
    </contour>
  </outline>
</glyph>
<glyph name="braceleft" format="2">
  <advance width="342" />
  <unicode hex="007B" />
  <outline>
    <contour>
      <point x="232" y="-83" type="curve" smooth="yes" />
      <point x="286" y="-83" type="line" />
      <point x="286" y="-20" type="line" />
      <point x="248" y="-20" type="line" smooth="yes" />
      <point x="216" y="-20" />
      <point x="202" y="-5" />
      <point x="202" y="30" type="curve" smooth="yes" />
      <point x="202" y="208" type="line" smooth="yes" />
      <point x="202" y="281" />
      <point x="187" y="310" />
      <point x="142" y="325" type="curve" />
      <point x="187" y="341" />
      <point x="202" y="369" />
      <point x="202" y="443" type="curve" smooth="yes" />
      <point x="202" y="617" type="line" smooth="yes" />
      <point x="202" y="650" />
      <point x="216" y="667" />
      <point x="248" y="667" type="curve" smooth="yes" />
      <point x="286" y="667" type="line" />
      <point x="286" y="729" type="line" />
      <point x="232" y="729" type="line" smooth="yes" />
      <point x="164" y="729" />
      <point x="129" y="694" />
      <point x="129" y="619" type="curve" smooth="yes" />
      <point x="129" y="439" type="line" smooth="yes" />
      <point x="129" y="383" />
      <point x="110" y="361" />
      <point x="57" y="359" type="curve" />
      <point x="57" y="292" type="line" />
      <point x="110" y="290" />
      <point x="129" y="268" />
      <point x="129" y="213" type="curve" smooth="yes" />
      <point x="129" y="27" type="line" smooth="yes" />
      <point x="129" y="-47" />
      <point x="164" y="-83" />
    </contour>
  </outline>
</glyph>
<glyph name="bar" format="2">
  <advance width="298" />
  <unicode hex="007C" />
  <outline>
    <contour>
      <point x="116" y="-82" type="line" />
      <point x="182" y="-82" type="line" />
      <point x="182" y="729" type="line" />
      <point x="116" y="729" type="line" />
    </contour>
  </outline>
</glyph>
<glyph name="braceright" format="2">
  <advance width="345" />
  <unicode hex="007D" />
  <outline>
    <contour>
      <point x="56" y="-83" type="line" />
      <point x="112" y="-83" type="line" smooth="yes" />
      <point x="181" y="-83" />
      <point x="215" y="-46" />
      <point x="215" y="27" type="curve" smooth="yes" />
      <point x="215" y="212" type="line" smooth="yes" />
      <point x="215" y="268" />
      <point x="234" y="290" />
      <point x="290" y="291" type="curve" />
      <point x="290" y="360" type="line" />
      <point x="235" y="362" />
      <point x="215" y="383" />
      <point x="215" y="439" type="curve" smooth="yes" />
      <point x="215" y="619" type="line" smooth="yes" />
      <point x="215" y="693" />
      <point x="181" y="729" />
      <point x="112" y="729" type="curve" smooth="yes" />
      <point x="56" y="729" type="line" />
      <point x="56" y="666" type="line" />
      <point x="94" y="666" type="line" smooth="yes" />
      <point x="126" y="666" />
      <point x="140" y="650" />
      <point x="140" y="616" type="curve" smooth="yes" />
      <point x="140" y="443" type="line" smooth="yes" />
      <point x="140" y="369" />
      <point x="157" y="341" />
      <point x="201" y="325" type="curve" />
      <point x="156" y="309" />
      <point x="140" y="281" />
      <point x="140" y="208" type="curve" smooth="yes" />
      <point x="140" y="31" type="line" smooth="yes" />
      <point x="140" y="-4" />
      <point x="126" y="-19" />
      <point x="94" y="-19" type="curve" smooth="yes" />
      <point x="56" y="-19" type="line" />
    </contour>
  </outline>
</glyph>
<glyph name="asciitilde" format="2">
  <advance width="504" />
  <unicode hex="007E" />
  <outline>
    <contour>
      <point x="94" y="213" type="line" />
      <point x="121" y="257" />
      <point x="139" y="272" />
      <point x="170" y="272" type="curve" smooth="yes" />
      <point x="193" y="272" />
      <point x="209" y="263" />
      <point x="240" y="243" type="curve" smooth="yes" />
      <point x="274" y="220" />
      <point x="298" y="209" />
      <point x="331" y="209" type="curve" smooth="yes" />
      <point x="383" y="209" />
      <point x="428" y="240" />
      <point x="457" y="300" type="curve" />
      <point x="409" y="331" type="line" />
      <point x="384" y="287" />
      <point x="363" y="272" />
      <point x="332" y="272" type="curve" smooth="yes" />
      <point x="309" y="272" />
      <point x="293" y="280" />
      <point x="263" y="299" type="curve" smooth="yes" />
      <point x="226" y="322" />
      <point x="204" y="334" />
      <point x="171" y="334" type="curve" smooth="yes" />
      <point x="119" y="334" />
      <point x="73" y="302" />
      <point x="46" y="242" type="curve" />
    </contour>
  </outline>
</glyph>
<glyph name="exclamdown" format="2">
  <advance width="235" />
  <unicode hex="00A1" />
  <outline>
    <contour>
      <point x="72" y="405" type="line" />
      <point x="164" y="405" type="line" />
      <point x="164" y="500" type="line" />
      <point x="72" y="500" type="line" />
    </contour>
    <contour>
      <point x="74" y="-150" type="line" />
      <point x="162" y="-150" type="line" />
      <point x="147" y="305" type="line" />
      <point x="89" y="305" type="line" />
    </contour>
  </outline>
</glyph>
<glyph name="cent" format="2">
  <advance width="505" />
  <unicode hex="00A2" />
  <outline>
    <contour>
      <point x="221" y="-98" type="line" />
      <point x="279" y="-98" type="line" />
      <point x="279" y="-6" type="line" />
      <point x="382" y="1" />
      <point x="449" y="65" />
      <point x="449" y="163" type="curve" smooth="yes" />
      <point x="449" y="166" type="line" />
      <point x="380" y="166" type="line" />
      <point x="380" y="163" type="line" smooth="yes" />
      <point x="380" y="94" />
      <point x="335" y="56" />
      <point x="260" y="56" type="curve" smooth="yes" />
      <point x="175" y="56" />
      <point x="127" y="99" />
      <point x="127" y="209" type="curve" smooth="yes" />
      <point x="127" y="293" type="line" smooth="yes" />
      <point x="127" y="402" />
      <point x="176" y="444" />
      <point x="261" y="444" type="curve" smooth="yes" />
      <point x="336" y="444" />
      <point x="380" y="405" />
      <point x="380" y="338" type="curve" smooth="yes" />
      <point x="380" y="333" type="line" />
      <point x="449" y="333" type="line" />
      <point x="449" y="338" type="line" smooth="yes" />
      <point x="449" y="435" />
      <point x="385" y="500" />
      <point x="279" y="507" type="curve" />
      <point x="279" y="599" type="line" />
      <point x="221" y="599" type="line" />
      <point x="221" y="505" type="line" />
      <point x="120" y="492" />
      <point x="57" y="425" />
      <point x="57" y="296" type="curve" smooth="yes" />
      <point x="57" y="205" type="line" smooth="yes" />
      <point x="57" y="77" />
      <point x="118" y="10" />
      <point x="221" y="-4" type="curve" />
    </contour>
  </outline>
</glyph>
<glyph name="sterling" format="2">
  <advance width="447" />
  <unicode hex="00A3" />
  <outline>
    <contour>
      <point x="53" y="0" type="line" />
      <point x="416" y="0" type="line" />
      <point x="416" y="71" type="line" />
      <point x="143" y="71" type="line" />
      <point x="166" y="96" />
      <point x="177" y="127" />
      <point x="177" y="174" type="curve" smooth="yes" />
      <point x="177" y="285" type="line" />
      <point x="322" y="285" type="line" />
      <point x="322" y="354" type="line" />
      <point x="177" y="354" type="line" />
      <point x="177" y="524" type="line" smooth="yes" />
      <point x="177" y="587" />
      <point x="206" y="619" />
      <point x="257" y="619" type="curve" smooth="yes" />
      <point x="309" y="619" />
      <point x="337" y="590" />
      <point x="337" y="536" type="curve" />
      <point x="413" y="536" type="line" />
      <point x="413" y="631" />
      <point x="354" y="690" />
      <point x="258" y="690" type="curve" smooth="yes" />
      <point x="159" y="690" />
      <point x="99" y="624" />
      <point x="99" y="513" type="curve" smooth="yes" />
      <point x="99" y="354" type="line" />
      <point x="32" y="354" type="line" />
      <point x="32" y="285" type="line" />
      <point x="99" y="285" type="line" />
      <point x="99" y="165" type="line" smooth="yes" />
      <point x="99" y="114" />
      <point x="85" y="84" />
      <point x="53" y="64" type="curve" />
    </contour>
  </outline>
</glyph>
<glyph name="currency" format="2">
  <advance width="603" />
  <unicode hex="00A4" />
  <outline>
    <contour>
      <point x="118" y="93" type="line" />
      <point x="189" y="164" type="line" />
      <point x="221" y="139" />
      <point x="259" y="128" />
      <point x="301" y="128" type="curve" smooth="yes" />
      <point x="343" y="128" />
      <point x="381" y="139" />
      <point x="414" y="164" type="curve" />
      <point x="484" y="93" type="line" />
      <point x="530" y="140" type="line" />
      <point x="460" y="210" type="line" />
      <point x="484" y="242" />
      <point x="495" y="280" />
      <point x="495" y="322" type="curve" smooth="yes" />
      <point x="495" y="364" />
      <point x="484" y="402" />
      <point x="460" y="436" type="curve" />
      <point x="529" y="504" type="line" />
      <point x="483" y="550" type="line" />
      <point x="413" y="482" type="line" />
      <point x="381" y="505" />
      <point x="343" y="517" />
      <point x="301" y="517" type="curve" smooth="yes" />
      <point x="259" y="517" />
      <point x="221" y="505" />
      <point x="189" y="482" type="curve" />
      <point x="119" y="550" type="line" />
      <point x="74" y="504" type="line" />
      <point x="142" y="435" type="line" />
      <point x="118" y="403" />
      <point x="108" y="365" />
      <point x="108" y="322" type="curve" smooth="yes" />
      <point x="108" y="281" />
      <point x="118" y="243" />
      <point x="141" y="210" type="curve" />
      <point x="73" y="140" type="line" />
    </contour>
    <contour>
      <point x="301" y="189" type="curve" smooth="yes" />
      <point x="226" y="189" />
      <point x="170" y="245" />
      <point x="170" y="322" type="curve" smooth="yes" />
      <point x="170" y="399" />
      <point x="226" y="456" />
      <point x="301" y="456" type="curve" smooth="yes" />
      <point x="376" y="456" />
      <point x="433" y="399" />
      <point x="433" y="322" type="curve" smooth="yes" />
      <point x="433" y="245" />
      <point x="376" y="189" />
    </contour>
  </outline>
</glyph>
<glyph name="yen" format="2">
  <advance width="467" />
  <unicode hex="00A5" />
  <outline>
    <contour>
      <point x="196" y="0" type="line" />
      <point x="273" y="0" type="line" />
      <point x="273" y="149" type="line" />
      <point x="418" y="149" type="line" />
      <point x="418" y="207" type="line" />
      <point x="273" y="207" type="line" />
      <point x="273" y="272" type="line" />
      <point x="418" y="272" type="line" />
      <point x="418" y="331" type="line" />
      <point x="292" y="331" type="line" />
      <point x="460" y="680" type="line" />
      <point x="374" y="680" type="line" />
      <point x="235" y="364" type="line" />
      <point x="95" y="680" type="line" />
      <point x="10" y="680" type="line" />
      <point x="177" y="331" type="line" />
      <point x="51" y="331" type="line" />
      <point x="51" y="272" type="line" />
      <point x="196" y="272" type="line" />
      <point x="196" y="207" type="line" />
      <point x="51" y="207" type="line" />
      <point x="51" y="149" type="line" />
      <point x="196" y="149" type="line" />
    </contour>
  </outline>
</glyph>
<glyph name="brokenbar" format="2">
  <advance width="298" />
  <unicode hex="00A6" />
  <outline>
    <contour>
      <point x="116" y="382" type="line" />
      <point x="182" y="382" type="line" />
      <point x="182" y="729" type="line" />
      <point x="116" y="729" type="line" />
    </contour>
    <contour>
      <point x="116" y="-82" type="line" />
      <point x="182" y="-82" type="line" />
      <point x="182" y="267" type="line" />
      <point x="116" y="267" type="line" />
    </contour>
  </outline>
</glyph>
<glyph name="section" format="2">
  <advance width="517" />
  <unicode hex="00A7" />
  <outline>
    <contour>
      <point x="257" y="-165" type="curve" smooth="yes" />
      <point x="357" y="-165" />
      <point x="423" y="-107" />
      <point x="423" y="-16" type="curve" smooth="yes" />
      <point x="423" y="50" />
      <point x="398" y="91" />
      <point x="341" y="116" type="curve" />
      <point x="403" y="136" />
      <point x="440" y="196" />
      <point x="440" y="272" type="curve" smooth="yes" />
      <point x="440" y="373" />
      <point x="391" y="428" />
      <point x="299" y="449" type="curve" smooth="yes" />
      <point x="206" y="470" />
      <point x="174" y="496" />
      <point x="174" y="556" type="curve" smooth="yes" />
      <point x="174" y="607" />
      <point x="206" y="638" />
      <point x="262" y="638" type="curve" smooth="yes" />
      <point x="320" y="638" />
      <point x="349" y="607" />
      <point x="349" y="547" type="curve" />
      <point x="421" y="547" type="line" />
      <point x="421" y="644" />
      <point x="367" y="703" />
      <point x="261" y="703" type="curve" smooth="yes" />
      <point x="163" y="703" />
      <point x="99" y="643" />
      <point x="99" y="556" type="curve" smooth="yes" />
      <point x="99" y="494" />
      <point x="120" y="454" />
      <point x="178" y="427" type="curve" />
      <point x="112" y="404" />
      <point x="77" y="347" />
      <point x="77" y="270" type="curve" smooth="yes" />
      <point x="77" y="175" />
      <point x="123" y="115" />
      <point x="218" y="93" type="curve" smooth="yes" />
      <point x="314" y="72" />
      <point x="348" y="45" />
      <point x="348" y="-14" type="curve" smooth="yes" />
      <point x="348" y="-69" />
      <point x="315" y="-99" />
      <point x="256" y="-99" type="curve" smooth="yes" />
      <point x="193" y="-99" />
      <point x="162" y="-68" />
      <point x="162" y="-3" type="curve" />
      <point x="89" y="-3" type="line" />
      <point x="89" y="-109" />
      <point x="148" y="-165" />
    </contour>
    <contour>
      <point x="259" y="159" type="curve" smooth="yes" />
      <point x="191" y="159" />
      <point x="152" y="199" />
      <point x="152" y="271" type="curve" smooth="yes" />
      <point x="152" y="343" />
      <point x="191" y="384" />
      <point x="259" y="384" type="curve" smooth="yes" />
      <point x="326" y="384" />
      <point x="366" y="343" />
      <point x="366" y="271" type="curve" smooth="yes" />
      <point x="366" y="199" />
      <point x="326" y="159" />
    </contour>
  </outline>
</glyph>
<glyph name="dieresis" format="2">
  <advance width="492" />
  <unicode hex="00A8" />
  <outline>
    <contour>
      <point x="119" y="570" type="line" />
      <point x="195" y="570" type="line" />
      <point x="195" y="656" type="line" />
      <point x="119" y="656" type="line" />
    </contour>
    <contour>
      <point x="296" y="570" type="line" />
      <point x="372" y="570" type="line" />
      <point x="372" y="656" type="line" />
      <point x="296" y="656" type="line" />
    </contour>
  </outline>
</glyph>
<glyph name="copyright" format="2">
  <advance width="803" />
  <unicode hex="00A9" />
  <outline>
    <contour>
      <point x="406" y="146" type="curve" smooth="yes" />
      <point x="493" y="146" />
      <point x="548" y="194" />
      <point x="548" y="271" type="curve" smooth="yes" />
      <point x="548" y="276" type="line" />
      <point x="493" y="276" type="line" />
      <point x="493" y="272" type="line" smooth="yes" />
      <point x="493" y="224" />
      <point x="461" y="196" />
      <point x="408" y="196" type="curve" smooth="yes" />
      <point x="345" y="196" />
      <point x="310" y="227" />
      <point x="310" y="307" type="curve" smooth="yes" />
      <point x="310" y="367" type="line" smooth="yes" />
      <point x="310" y="447" />
      <point x="345" y="478" />
      <point x="407" y="478" type="curve" smooth="yes" />
      <point x="461" y="478" />
      <point x="493" y="451" />
      <point x="493" y="402" type="curve" smooth="yes" />
      <point x="493" y="399" type="line" />
      <point x="548" y="399" type="line" />
      <point x="548" y="404" type="line" smooth="yes" />
      <point x="548" y="481" />
      <point x="494" y="529" />
      <point x="406" y="529" type="curve" smooth="yes" />
      <point x="313" y="529" />
      <point x="253" y="478" />
      <point x="253" y="370" type="curve" smooth="yes" />
      <point x="253" y="304" type="line" smooth="yes" />
      <point x="253" y="195" />
      <point x="313" y="146" />
    </contour>
    <contour>
      <point x="402" y="-10" type="curve" smooth="yes" />
      <point x="601" y="-10" />
      <point x="741" y="132" />
      <point x="741" y="335" type="curve" smooth="yes" />
      <point x="741" y="538" />
      <point x="601" y="680" />
      <point x="402" y="680" type="curve" smooth="yes" />
      <point x="202" y="680" />
      <point x="63" y="536" />
      <point x="63" y="335" type="curve" smooth="yes" />
      <point x="63" y="133" />
      <point x="203" y="-10" />
    </contour>
    <contour>
      <point x="402" y="44" type="curve" smooth="yes" />
      <point x="234" y="44" />
      <point x="122" y="160" />
      <point x="122" y="335" type="curve" smooth="yes" />
      <point x="122" y="509" />
      <point x="233" y="625" />
      <point x="402" y="625" type="curve" smooth="yes" />
      <point x="571" y="625" />
      <point x="683" y="509" />
      <point x="683" y="335" type="curve" smooth="yes" />
      <point x="683" y="161" />
      <point x="570" y="44" />
    </contour>
  </outline>
</glyph>
<glyph name="ordfeminine" format="2">
  <advance width="339" />
  <unicode hex="00AA" />
  <outline>
    <contour>
      <point x="140" y="419" type="curve" smooth="yes" />
      <point x="177" y="419" />
      <point x="203" y="431" />
      <point x="224" y="455" type="curve" />
      <point x="224" y="423" type="line" />
      <point x="287" y="423" type="line" />
      <point x="287" y="628" type="line" smooth="yes" />
      <point x="287" y="699" />
      <point x="244" y="737" />
      <point x="164" y="737" type="curve" smooth="yes" />
      <point x="89" y="737" />
      <point x="45" y="701" />
      <point x="45" y="644" type="curve" smooth="yes" />
      <point x="45" y="643" type="line" />
      <point x="106" y="643" type="line" />
      <point x="106" y="644" type="line" smooth="yes" />
      <point x="106" y="670" />
      <point x="126" y="687" />
      <point x="163" y="687" type="curve" smooth="yes" />
      <point x="201" y="687" />
      <point x="221" y="668" />
      <point x="221" y="632" type="curve" smooth="yes" />
      <point x="221" y="605" type="line" />
      <point x="146" y="605" type="line" smooth="yes" />
      <point x="78" y="605" />
      <point x="37" y="572" />
      <point x="37" y="516" type="curve" smooth="yes" />
      <point x="37" y="456" />
      <point x="75" y="419" />
    </contour>
    <contour>
      <point x="99" y="517" type="curve" smooth="yes" />
      <point x="99" y="545" />
      <point x="118" y="559" />
      <point x="157" y="559" type="curve" smooth="yes" />
      <point x="221" y="559" type="line" />
      <point x="221" y="535" type="line" smooth="yes" />
      <point x="221" y="493" />
      <point x="202" y="473" />
      <point x="155" y="473" type="curve" smooth="yes" />
      <point x="118" y="473" />
      <point x="99" y="488" />
    </contour>
  </outline>
</glyph>
<glyph name="guillemotleft" format="2">
  <advance width="491" />
  <unicode hex="00AB" />
  <outline>
    <contour>
      <point x="226" y="63" type="line" />
      <point x="226" y="147" type="line" />
      <point x="111" y="260" type="line" />
      <point x="226" y="373" type="line" />
      <point x="226" y="457" type="line" />
      <point x="24" y="260" type="line" />
    </contour>
    <contour>
      <point x="420" y="63" type="line" />
      <point x="420" y="147" type="line" />
      <point x="303" y="260" type="line" />
      <point x="420" y="373" type="line" />
      <point x="420" y="457" type="line" />
      <point x="217" y="260" type="line" />
    </contour>
  </outline>
</glyph>
<glyph name="logicalnot" format="2">
  <advance width="504" />
  <unicode hex="00AC" />
  <outline>
    <contour>
      <point x="381" y="111" type="line" />
      <point x="449" y="111" type="line" />
      <point x="449" y="304" type="line" />
      <point x="55" y="304" type="line" />
      <point x="55" y="240" type="line" />
      <point x="381" y="240" type="line" />
    </contour>
  </outline>
</glyph>
<glyph name="registered" format="2">
  <advance width="492" />
  <unicode hex="00AE" />
  <outline>
    <contour>
      <point x="245" y="301" type="curve" smooth="yes" />
      <point x="351" y="301" />
      <point x="431" y="381" />
      <point x="431" y="491" type="curve" smooth="yes" />
      <point x="431" y="597" />
      <point x="352" y="679" />
      <point x="245" y="679" type="curve" smooth="yes" />
      <point x="140" y="679" />
      <point x="61" y="597" />
      <point x="61" y="491" type="curve" smooth="yes" />
      <point x="61" y="384" />
      <point x="140" y="301" />
    </contour>
    <contour>
      <point x="96" y="491" type="curve" smooth="yes" />
      <point x="96" y="581" />
      <point x="157" y="647" />
      <point x="246" y="647" type="curve" smooth="yes" />
      <point x="336" y="647" />
      <point x="396" y="581" />
      <point x="396" y="491" type="curve" smooth="yes" />
      <point x="396" y="400" />
      <point x="337" y="334" />
      <point x="246" y="334" type="curve" smooth="yes" />
      <point x="157" y="334" />
      <point x="96" y="400" />
    </contour>
    <contour>
      <point x="176" y="386" type="line" />
      <point x="213" y="386" type="line" />
      <point x="213" y="473" type="line" />
      <point x="251" y="473" type="line" />
      <point x="292" y="386" type="line" />
      <point x="331" y="386" type="line" />
      <point x="288" y="477" type="line" />
      <point x="313" y="487" />
      <point x="326" y="506" />
      <point x="326" y="535" type="curve" smooth="yes" />
      <point x="326" y="573" />
      <point x="301" y="597" />
      <point x="257" y="597" type="curve" smooth="yes" />
      <point x="176" y="597" type="line" />
    </contour>
    <contour>
      <point x="213" y="504" type="line" />
      <point x="213" y="565" type="line" />
      <point x="256" y="565" type="line" smooth="yes" />
      <point x="280" y="565" />
      <point x="290" y="555" />
      <point x="290" y="535" type="curve" smooth="yes" />
      <point x="290" y="515" />
      <point x="280" y="504" />
      <point x="256" y="504" type="curve" smooth="yes" />
    </contour>
  </outline>
</glyph>
<glyph name="degree" format="2">
  <advance width="401" />
  <unicode hex="00B0" />
  <outline>
    <contour>
      <point x="202" y="414" type="curve" smooth="yes" />
      <point x="279" y="414" />
      <point x="339" y="472" />
      <point x="339" y="551" type="curve" smooth="yes" />
      <point x="339" y="630" />
      <point x="279" y="690" />
      <point x="202" y="690" type="curve" smooth="yes" />
      <point x="121" y="690" />
      <point x="63" y="630" />
      <point x="63" y="551" type="curve" smooth="yes" />
      <point x="63" y="472" />
      <point x="121" y="414" />
    </contour>
    <contour>
      <point x="116" y="551" type="curve" smooth="yes" />
      <point x="116" y="601" />
      <point x="150" y="641" />
      <point x="202" y="641" type="curve" smooth="yes" />
      <point x="251" y="641" />
      <point x="287" y="602" />
      <point x="287" y="551" type="curve" smooth="yes" />
      <point x="287" y="500" />
      <point x="250" y="464" />
      <point x="202" y="464" type="curve" smooth="yes" />
      <point x="151" y="464" />
      <point x="116" y="500" />
    </contour>
  </outline>
</glyph>
<glyph name="plusminus" format="2">
  <advance width="504" />
  <unicode hex="00B1" />
  <outline>
    <contour>
      <point x="219" y="76" type="line" />
      <point x="285" y="76" type="line" />
      <point x="285" y="240" type="line" />
      <point x="448" y="240" type="line" />
      <point x="448" y="304" type="line" />
      <point x="285" y="304" type="line" />
      <point x="285" y="467" type="line" />
      <point x="219" y="467" type="line" />
      <point x="219" y="304" type="line" />
      <point x="56" y="304" type="line" />
      <point x="56" y="240" type="line" />
      <point x="219" y="240" type="line" />
    </contour>
    <contour>
      <point x="56" y="-39" type="line" />
      <point x="448" y="-39" type="line" />
      <point x="448" y="25" type="line" />
      <point x="56" y="25" type="line" />
    </contour>
  </outline>
</glyph>
<glyph name="acute" format="2">
  <advance width="492" />
  <unicode hex="00B4" />
  <outline>
    <contour>
      <point x="164" y="565" type="line" />
      <point x="231" y="565" type="line" />
      <point x="352" y="689" type="line" />
      <point x="264" y="689" type="line" />
    </contour>
  </outline>
</glyph>
<glyph name="mu" format="2">
  <advance width="507" />
  <unicode hex="00B5" />
  <outline>
    <contour>
      <point x="74" y="-150" type="line" />
      <point x="140" y="-150" type="line" />
      <point x="140" y="31" type="line" />
      <point x="164" y="5" />
      <point x="197" y="-8" />
      <point x="240" y="-8" type="curve" smooth="yes" />
      <point x="295" y="-8" />
      <point x="340" y="14" />
      <point x="366" y="59" type="curve" />
      <point x="366" y="0" type="line" />
      <point x="434" y="0" type="line" />
      <point x="434" y="499" type="line" />
      <point x="366" y="499" type="line" />
      <point x="366" y="175" type="line" smooth="yes" />
      <point x="366" y="98" />
      <point x="316" y="53" />
      <point x="251" y="53" type="curve" smooth="yes" />
      <point x="184" y="53" />
      <point x="140" y="94" />
      <point x="140" y="175" type="curve" smooth="yes" />
      <point x="140" y="499" type="line" />
      <point x="74" y="499" type="line" />
    </contour>
  </outline>
</glyph>
<glyph name="paragraph" format="2">
  <advance width="622" />
  <unicode hex="00B6" />
  <outline>
    <contour>
      <point x="280" y="-150" type="line" />
      <point x="349" y="-150" type="line" />
      <point x="349" y="613" type="line" />
      <point x="438" y="613" type="line" />
      <point x="438" y="-150" type="line" />
      <point x="508" y="-150" type="line" />
      <point x="508" y="680" type="line" />
      <point x="295" y="680" type="line" smooth="yes" />
      <point x="159" y="680" />
      <point x="77" y="594" />
      <point x="77" y="473" type="curve" smooth="yes" />
      <point x="77" y="355" />
      <point x="154" y="273" />
      <point x="280" y="267" type="curve" />
    </contour>
  </outline>
</glyph>
<glyph name="cedilla" format="2">
  <advance width="492" />
  <unicode hex="00B8" />
  <outline>
    <contour>
      <point x="178" y="-149" type="line" />
      <point x="252" y="-149" type="line" />
      <point x="310" y="12" type="line" />
      <point x="246" y="12" type="line" />
    </contour>
  </outline>
</glyph>
<glyph name="ordmasculine" format="2">
  <advance width="324" />
  <unicode hex="00BA" />
  <outline>
    <contour>
      <point x="163" y="419" type="curve" smooth="yes" />
      <point x="240" y="419" />
      <point x="285" y="460" />
      <point x="285" y="548" type="curve" smooth="yes" />
      <point x="285" y="608" type="line" smooth="yes" />
      <point x="285" y="696" />
      <point x="240" y="737" />
      <point x="163" y="737" type="curve" smooth="yes" />
      <point x="86" y="737" />
      <point x="40" y="696" />
      <point x="40" y="608" type="curve" smooth="yes" />
      <point x="40" y="548" type="line" smooth="yes" />
      <point x="40" y="460" />
      <point x="86" y="419" />
    </contour>
    <contour>
      <point x="104" y="548" type="curve" smooth="yes" />
      <point x="104" y="608" type="line" smooth="yes" />
      <point x="104" y="656" />
      <point x="123" y="680" />
      <point x="163" y="680" type="curve" smooth="yes" />
      <point x="202" y="680" />
      <point x="221" y="656" />
      <point x="221" y="608" type="curve" smooth="yes" />
      <point x="221" y="548" type="line" smooth="yes" />
      <point x="221" y="500" />
      <point x="202" y="477" />
      <point x="163" y="477" type="curve" smooth="yes" />
      <point x="123" y="477" />
      <point x="104" y="500" />
    </contour>
  </outline>
</glyph>
<glyph name="guillemotright" format="2">
  <advance width="470" />
  <unicode hex="00BB" />
  <outline>
    <contour>
      <point x="74" y="65" type="line" />
      <point x="265" y="260" type="line" />
      <point x="74" y="455" type="line" />
      <point x="74" y="373" type="line" />
      <point x="186" y="260" type="line" />
      <point x="74" y="147" type="line" />
    </contour>
    <contour>
      <point x="253" y="65" type="line" />
      <point x="446" y="260" type="line" />
      <point x="253" y="455" type="line" />
      <point x="253" y="373" type="line" />
      <point x="366" y="260" type="line" />
      <point x="253" y="147" type="line" />
    </contour>
  </outline>
</glyph>
<glyph name="questiondown" format="2">
  <advance width="433" />
  <unicode hex="00BF" />
  <outline>
    <contour>
      <point x="221" y="-160" type="curve" smooth="yes" />
      <point x="334" y="-160" />
      <point x="395" y="-98" />
      <point x="397" y="14" type="curve" />
      <point x="323" y="14" type="line" />
      <point x="322" y="-57" />
      <point x="289" y="-91" />
      <point x="223" y="-91" type="curve" smooth="yes" />
      <point x="158" y="-91" />
      <point x="120" y="-56" />
      <point x="120" y="6" type="curve" smooth="yes" />
      <point x="120" y="44" />
      <point x="132" y="71" />
      <point x="166" y="114" type="curve" smooth="yes" />
      <point x="215" y="169" type="line" smooth="yes" />
      <point x="251" y="213" />
      <point x="261" y="239" />
      <point x="261" y="291" type="curve" smooth="yes" />
      <point x="261" y="327" type="line" />
      <point x="186" y="327" type="line" />
      <point x="186" y="293" type="line" smooth="yes" />
      <point x="186" y="253" />
      <point x="180" y="236" />
      <point x="153" y="203" type="curve" smooth="yes" />
      <point x="102" y="142" type="line" smooth="yes" />
      <point x="60" y="90" />
      <point x="45" y="55" />
      <point x="45" y="5" type="curve" smooth="yes" />
      <point x="45" y="-94" />
      <point x="113" y="-160" />
    </contour>
    <contour>
      <point x="179" y="407" type="line" />
      <point x="268" y="407" type="line" />
      <point x="268" y="500" type="line" />
      <point x="179" y="500" type="line" />
    </contour>
  </outline>
</glyph>
<glyph name="AE" format="2">
  <advance width="890" />
  <unicode hex="00C6" />
  <outline>
    <contour>
      <point x="7" y="0" type="line" />
      <point x="90" y="0" type="line" />
      <point x="183" y="165" type="line" />
      <point x="434" y="165" type="line" />
      <point x="434" y="0" type="line" />
      <point x="845" y="0" type="line" />
      <point x="845" y="69" type="line" />
      <point x="511" y="69" type="line" />
      <point x="511" y="311" type="line" />
      <point x="793" y="311" type="line" />
      <point x="793" y="380" type="line" />
      <point x="511" y="380" type="line" />
      <point x="511" y="611" type="line" />
      <point x="845" y="611" type="line" />
      <point x="845" y="680" type="line" />
      <point x="390" y="680" type="line" />
    </contour>
    <contour>
      <point x="219" y="231" type="line" />
      <point x="434" y="614" type="line" />
      <point x="434" y="231" type="line" />
    </contour>
  </outline>
</glyph>
<glyph name="Eth" format="2">
  <advance width="659" />
  <unicode hex="00D0" />
  <outline>
    <contour>
      <point x="126" y="0" type="line" />
      <point x="359" y="0" type="line" smooth="yes" />
      <point x="503" y="0" />
      <point x="594" y="79" />
      <point x="594" y="260" type="curve" smooth="yes" />
      <point x="594" y="419" type="line" smooth="yes" />
      <point x="594" y="600" />
      <point x="503" y="680" />
      <point x="359" y="680" type="curve" smooth="yes" />
      <point x="126" y="680" type="line" />
      <point x="126" y="376" type="line" />
      <point x="38" y="376" type="line" />
      <point x="38" y="312" type="line" />
      <point x="126" y="312" type="line" />
    </contour>
    <contour>
      <point x="199" y="65" type="line" />
      <point x="199" y="312" type="line" />
      <point x="337" y="312" type="line" />
      <point x="337" y="376" type="line" />
      <point x="199" y="376" type="line" />
      <point x="199" y="615" type="line" />
      <point x="360" y="615" type="line" smooth="yes" />
      <point x="464" y="615" />
      <point x="521" y="555" />
      <point x="521" y="417" type="curve" smooth="yes" />
      <point x="521" y="256" type="line" smooth="yes" />
      <point x="521" y="129" />
      <point x="467" y="65" />
      <point x="360" y="65" type="curve" smooth="yes" />
    </contour>
  </outline>
</glyph>
<glyph name="multiply" format="2">
  <advance width="503" />
  <unicode hex="00D7" />
  <outline>
    <contour>
      <point x="132" y="106" type="line" />
      <point x="252" y="226" type="line" />
      <point x="372" y="106" type="line" />
      <point x="418" y="152" type="line" />
      <point x="298" y="273" type="line" />
      <point x="418" y="393" type="line" />
      <point x="372" y="440" type="line" />
      <point x="252" y="319" type="line" />
      <point x="132" y="440" type="line" />
      <point x="86" y="393" type="line" />
      <point x="206" y="273" type="line" />
      <point x="86" y="152" type="line" />
    </contour>
  </outline>
</glyph>
<glyph name="Oslash" format="2">
  <advance width="600" />
  <unicode hex="00D8" />
  <anchor x="301" y="680" name="top" />
  <outline>
    <component base="O" />
    <contour>
      <point x="65" y="-19" type="line" />
      <point x="122" y="-19" type="line" />
      <point x="536" y="699" type="line" />
      <point x="479" y="699" type="line" />
    </contour>
  </outline>
</glyph>
<glyph name="Thorn" format="2">
  <advance width="568" />
  <unicode hex="00DE" />
  <outline>
    <contour>
      <point x="79" y="0" type="line" />
      <point x="151" y="0" type="line" />
      <point x="151" y="157" type="line" />
      <point x="314" y="157" type="line" smooth="yes" />
      <point x="444" y="157" />
      <point x="527" y="232" />
      <point x="527" y="353" type="curve" smooth="yes" />
      <point x="527" y="484" />
      <point x="446" y="556" />
      <point x="314" y="556" type="curve" smooth="yes" />
      <point x="151" y="556" type="line" />
      <point x="151" y="680" type="line" />
      <point x="79" y="680" type="line" />
    </contour>
    <contour>
      <point x="151" y="221" type="line" />
      <point x="151" y="492" type="line" />
      <point x="307" y="492" type="line" smooth="yes" />
      <point x="401" y="492" />
      <point x="455" y="445" />
      <point x="455" y="353" type="curve" smooth="yes" />
      <point x="455" y="265" />
      <point x="401" y="221" />
      <point x="307" y="221" type="curve" smooth="yes" />
    </contour>
  </outline>
</glyph>
<glyph name="germandbls" format="2">
  <advance width="513" />
  <unicode hex="00DF" />
  <outline>
    <contour>
      <point x="255" y="-4" type="line" />
      <point x="286" y="-4" type="line" smooth="yes" />
      <point x="426" y="-4" />
      <point x="457" y="48" />
      <point x="457" y="222" type="curve" smooth="yes" />
      <point x="457" y="349" />
      <point x="445" y="391" />
      <point x="382" y="419" type="curve" />
      <point x="427" y="442" />
      <point x="448" y="477" />
      <point x="448" y="535" type="curve" smooth="yes" />
      <point x="448" y="632" />
      <point x="381" y="687" />
      <point x="262" y="687" type="curve" smooth="yes" />
      <point x="129" y="687" />
      <point x="72" y="621" />
      <point x="72" y="494" type="curve" smooth="yes" />
      <point x="72" y="0" type="line" />
      <point x="143" y="0" type="line" />
      <point x="143" y="503" type="line" smooth="yes" />
      <point x="143" y="587" />
      <point x="180" y="621" />
      <point x="264" y="621" type="curve" smooth="yes" />
      <point x="340" y="621" />
      <point x="376" y="594" />
      <point x="376" y="534" type="curve" smooth="yes" />
      <point x="376" y="475" />
      <point x="348" y="449" />
      <point x="281" y="449" type="curve" smooth="yes" />
      <point x="254" y="449" type="line" />
      <point x="254" y="384" type="line" />
      <point x="275" y="384" type="line" smooth="yes" />
      <point x="372" y="384" />
      <point x="384" y="350" />
      <point x="384" y="221" type="curve" smooth="yes" />
      <point x="384" y="88" />
      <point x="371" y="61" />
      <point x="282" y="61" type="curve" smooth="yes" />
      <point x="255" y="61" type="line" />
    </contour>
  </outline>
</glyph>
<glyph name="ae" format="2">
  <advance width="814" />
  <unicode hex="00E6" />
  <outline>
    <contour>
      <point x="224" y="-6" type="curve" smooth="yes" />
      <point x="305" y="-6" />
      <point x="364" y="21" />
      <point x="398" y="75" type="curve" />
      <point x="435" y="18" />
      <point x="493" y="-7" />
      <point x="569" y="-7" type="curve" smooth="yes" />
      <point x="685" y="-7" />
      <point x="754" y="61" />
      <point x="755" y="152" type="curve" smooth="yes" />
      <point x="755" y="157" type="line" />
      <point x="685" y="157" type="line" />
      <point x="685" y="154" type="line" smooth="yes" />
      <point x="684" y="94" />
      <point x="640" y="57" />
      <point x="568" y="57" type="curve" smooth="yes" />
      <point x="482" y="57" />
      <point x="432" y="101" />
      <point x="432" y="213" type="curve" smooth="yes" />
      <point x="432" y="236" type="line" />
      <point x="758" y="236" type="line" />
      <point x="758" y="293" type="line" smooth="yes" />
      <point x="758" y="437" />
      <point x="681" y="509" />
      <point x="560" y="509" type="curve" smooth="yes" />
      <point x="490" y="509" />
      <point x="438" y="486" />
      <point x="403" y="441" type="curve" />
      <point x="371" y="486" />
      <point x="317" y="507" />
      <point x="240" y="507" type="curve" smooth="yes" />
      <point x="129" y="507" />
      <point x="60" y="451" />
      <point x="60" y="364" type="curve" smooth="yes" />
      <point x="60" y="360" type="line" />
      <point x="130" y="360" type="line" />
      <point x="130" y="363" type="line" smooth="yes" />
      <point x="130" y="416" />
      <point x="172" y="447" />
      <point x="241" y="447" type="curve" smooth="yes" />
      <point x="319" y="447" />
      <point x="361" y="411" />
      <point x="361" y="337" type="curve" smooth="yes" />
      <point x="361" y="287" type="line" />
      <point x="219" y="287" type="line" smooth="yes" />
      <point x="108" y="287" />
      <point x="45" y="233" />
      <point x="45" y="142" type="curve" smooth="yes" />
      <point x="45" y="47" />
      <point x="113" y="-6" />
    </contour>
    <contour>
      <point x="116" y="143" type="curve" smooth="yes" />
      <point x="116" y="204" />
      <point x="154" y="234" />
      <point x="230" y="234" type="curve" smooth="yes" />
      <point x="361" y="234" type="line" />
      <point x="361" y="179" type="line" smooth="yes" />
      <point x="361" y="94" />
      <point x="316" y="52" />
      <point x="230" y="52" type="curve" smooth="yes" />
      <point x="154" y="52" />
      <point x="116" y="83" />
    </contour>
    <contour>
      <point x="432" y="289" type="line" />
      <point x="432" y="296" type="line" smooth="yes" />
      <point x="432" y="403" />
      <point x="482" y="444" />
      <point x="560" y="444" type="curve" smooth="yes" />
      <point x="641" y="444" />
      <point x="686" y="405" />
      <point x="686" y="303" type="curve" smooth="yes" />
      <point x="686" y="289" type="line" />
    </contour>
  </outline>
</glyph>
<glyph name="eth" format="2">
  <advance width="502" />
  <unicode hex="00F0" />
  <outline>
    <contour>
      <point x="251" y="-10" type="curve" smooth="yes" />
      <point x="374" y="-10" />
      <point x="446" y="66" />
      <point x="446" y="211" type="curve" smooth="yes" />
      <point x="446" y="258" type="line" smooth="yes" />
      <point x="446" y="339" />
      <point x="422" y="408" />
      <point x="366" y="484" type="curve" smooth="yes" />
      <point x="305" y="565" type="line" />
      <point x="388" y="588" type="line" />
      <point x="373" y="644" type="line" />
      <point x="268" y="614" type="line" />
      <point x="217" y="681" type="line" />
      <point x="133" y="681" type="line" />
      <point x="198" y="593" type="line" />
      <point x="114" y="568" type="line" />
      <point x="130" y="513" type="line" />
      <point x="236" y="543" type="line" />
      <point x="303" y="453" type="line" />
      <point x="284" y="462" />
      <point x="263" y="466" />
      <point x="236" y="466" type="curve" smooth="yes" />
      <point x="124" y="466" />
      <point x="56" y="390" />
      <point x="56" y="254" type="curve" smooth="yes" />
      <point x="56" y="207" type="line" smooth="yes" />
      <point x="56" y="67" />
      <point x="128" y="-10" />
    </contour>
    <contour>
      <point x="127" y="207" type="curve" smooth="yes" />
      <point x="127" y="256" type="line" smooth="yes" />
      <point x="127" y="351" />
      <point x="169" y="401" />
      <point x="252" y="401" type="curve" smooth="yes" />
      <point x="334" y="401" />
      <point x="375" y="352" />
      <point x="375" y="254" type="curve" smooth="yes" />
      <point x="375" y="207" type="line" smooth="yes" />
      <point x="375" y="108" />
      <point x="333" y="58" />
      <point x="252" y="58" type="curve" smooth="yes" />
      <point x="169" y="58" />
      <point x="127" y="109" />
    </contour>
  </outline>
</glyph>
<glyph name="divide" format="2">
  <advance width="504" />
  <unicode hex="00F7" />
  <outline>
    <contour>
      <point x="252" y="87" type="curve" smooth="yes" />
      <point x="279" y="87" />
      <point x="299" y="107" />
      <point x="299" y="134" type="curve" smooth="yes" />
      <point x="299" y="161" />
      <point x="279" y="181" />
      <point x="252" y="181" type="curve" smooth="yes" />
      <point x="225" y="181" />
      <point x="205" y="161" />
      <point x="205" y="134" type="curve" smooth="yes" />
      <point x="205" y="107" />
      <point x="225" y="87" />
    </contour>
    <contour>
      <point x="56" y="240" type="line" />
      <point x="448" y="240" type="line" />
      <point x="448" y="304" type="line" />
      <point x="56" y="304" type="line" />
    </contour>
    <contour>
      <point x="252" y="365" type="curve" smooth="yes" />
      <point x="279" y="365" />
      <point x="299" y="385" />
      <point x="299" y="412" type="curve" smooth="yes" />
      <point x="299" y="439" />
      <point x="279" y="459" />
      <point x="252" y="459" type="curve" smooth="yes" />
      <point x="225" y="459" />
      <point x="205" y="439" />
      <point x="205" y="412" type="curve" smooth="yes" />
      <point x="205" y="385" />
      <point x="225" y="365" />
    </contour>
  </outline>
</glyph>
<glyph name="oslash" format="2">
  <advance width="516" />
  <unicode hex="00F8" />
  <outline>
    <component base="o" />
    <contour>
      <point x="58" y="-30" type="line" />
      <point x="107" y="-30" type="line" />
      <point x="458" y="526" type="line" />
      <point x="409" y="526" type="line" />
    </contour>
  </outline>
</glyph>
<glyph name="thorn" format="2">
  <advance width="521" />
  <unicode hex="00FE" />
  <outline>
    <contour>
      <point x="72" y="-150" type="line" />
      <point x="143" y="-150" type="line" />
      <point x="143" y="66" type="line" />
      <point x="172" y="18" />
      <point x="220" y="-7" />
      <point x="286" y="-7" type="curve" smooth="yes" />
      <point x="391" y="-7" />
      <point x="466" y="63" />
      <point x="466" y="207" type="curve" smooth="yes" />
      <point x="466" y="295" type="line" smooth="yes" />
      <point x="466" y="438" />
      <point x="391" y="509" />
      <point x="282" y="509" type="curve" smooth="yes" />
      <point x="220" y="509" />
      <point x="171" y="480" />
      <point x="143" y="431" type="curve" />
      <point x="143" y="680" type="line" />
      <point x="72" y="680" type="line" />
    </contour>
    <contour>
      <point x="143" y="208" type="curve" smooth="yes" />
      <point x="143" y="290" type="line" smooth="yes" />
      <point x="143" y="383" />
      <point x="188" y="443" />
      <point x="271" y="443" type="curve" smooth="yes" />
      <point x="352" y="443" />
      <point x="393" y="392" />
      <point x="393" y="291" type="curve" smooth="yes" />
      <point x="393" y="211" type="line" smooth="yes" />
      <point x="393" y="109" />
      <point x="352" y="57" />
      <point x="274" y="57" type="curve" smooth="yes" />
      <point x="190" y="57" />
      <point x="143" y="118" />
    </contour>
  </outline>
</glyph>
<glyph name="dcroat" format="2">
  <advance width="506" />
  <unicode hex="0111" />
  <outline>
    <component base="d" />
    <contour>
      <point x="247" y="568" type="line" />
      <point x="503" y="568" type="line" />
      <point x="503" y="611" type="line" />
      <point x="247" y="611" type="line" />
    </contour>
  </outline>
</glyph>
<glyph name="eogonek" format="2">
  <advance width="510" />
  <unicode hex="0119" />
  <outline>
    <component base="e" />
    <contour>
      <point x="407" y="-209" type="curve" />
      <point x="407" y="-143" type="line" />
      <point x="353" y="-142" />
      <point x="319" y="-137" />
      <point x="286" y="-94" type="curve" />
      <point x="410" y="55" type="line" />
      <point x="320" y="11" type="line" />
      <point x="209" y="-85" type="line" />
      <point x="217" y="-113" />
      <point x="232" y="-137" />
      <point x="252" y="-155" type="curve" smooth="yes" />
      <point x="290" y="-189" />
      <point x="331" y="-208" />
    </contour>
  </outline>
</glyph>
<glyph name="gcommaaccent" format="2">
  <advance width="503" />
  <unicode hex="0123" />
  <outline>
    <component base="g" />
    <contour>
      <point x="212" y="552" type="line" />
      <point x="273" y="552" type="line" />
      <point x="273" y="680" type="line" />
      <point x="212" y="620" type="line" />
    </contour>
  </outline>
</glyph>
<glyph name="Hbar" format="2">
  <advance width="649" />
  <unicode hex="0126" />
  <outline>
    <component base="H" />
    <contour>
      <point x="39" y="486" type="line" />
      <point x="594" y="486" type="line" />
      <point x="594" y="555" type="line" />
      <point x="39" y="555" type="line" />
    </contour>
  </outline>
</glyph>
<glyph name="hbar" format="2">
  <advance width="514" />
  <unicode hex="0127" />
  <outline>
    <component base="h" />
    <contour>
      <point x="10" y="560" type="line" />
      <point x="281" y="560" type="line" />
      <point x="281" y="615" type="line" />
      <point x="10" y="615" type="line" />
    </contour>
  </outline>
</glyph>
<glyph name="dotlessi" format="2">
  <advance width="231" />
  <unicode hex="0131" />
  <anchor x="115" y="499" name="top" />
  <outline>
    <contour>
      <point x="82" y="0" type="line" />
      <point x="149" y="0" type="line" />
      <point x="149" y="499" type="line" />
      <point x="82" y="499" type="line" />
    </contour>
  </outline>
</glyph>
<glyph name="IJ" format="2">
  <advance width="641" />
  <unicode hex="0132" />
  <outline>
    <contour>
      <point x="321" y="-6" type="curve" smooth="yes" />
      <point x="464" y="-6" />
      <point x="565" y="88" />
      <point x="565" y="227" type="curve" smooth="yes" />
      <point x="565" y="680" type="line" />
      <point x="488" y="680" type="line" />
      <point x="488" y="234" type="line" smooth="yes" />
      <point x="488" y="126" />
      <point x="425" y="62" />
      <point x="321" y="62" type="curve" smooth="yes" />
      <point x="236" y="62" />
      <point x="193" y="96" />
      <point x="168" y="153" type="curve" />
      <point x="88" y="153" type="line" />
      <point x="115" y="56" />
      <point x="206" y="-6" />
    </contour>
    <contour>
      <point x="77" y="329" type="line" />
      <point x="155" y="329" type="line" />
      <point x="155" y="680" type="line" />
      <point x="77" y="680" type="line" />
    </contour>
  </outline>
</glyph>
<glyph name="ij" format="2">
  <advance width="491" />
  <unicode hex="0133" />
  <outline>
    <contour>
      <point x="243" y="-157" type="curve" smooth="yes" />
      <point x="341" y="-157" />
      <point x="418" y="-83" />
      <point x="418" y="40" type="curve" smooth="yes" />
      <point x="418" y="500" type="line" />
      <point x="347" y="500" type="line" />
      <point x="347" y="241" type="line" smooth="yes" />
      <point x="347" y="145" />
      <point x="301" y="99" />
      <point x="238" y="99" type="curve" smooth="yes" />
      <point x="184" y="99" />
      <point x="147" y="141" />
      <point x="147" y="242" type="curve" smooth="yes" />
      <point x="147" y="500" type="line" />
      <point x="75" y="500" type="line" />
      <point x="75" y="239" type="line" smooth="yes" />
      <point x="75" y="95" />
      <point x="168" y="29" />
      <point x="230" y="29" type="curve" smooth="yes" />
      <point x="280" y="29" />
      <point x="324" y="52" />
      <point x="347" y="97" type="curve" />
      <point x="347" y="35" type="line" smooth="yes" />
      <point x="347" y="-52" />
      <point x="297" y="-94" />
      <point x="243" y="-94" type="curve" smooth="yes" />
      <point x="212" y="-94" />
      <point x="157" y="-69" />
      <point x="149" y="-22" type="curve" />
      <point x="79" y="-22" type="line" />
      <point x="85" y="-111" />
      <point x="167" y="-157" />
    </contour>
    <contour>
      <point x="77" y="591" type="line" />
      <point x="148" y="591" type="line" />
      <point x="148" y="680" type="line" />
      <point x="77" y="680" type="line" />
    </contour>
    <contour>
      <point x="347" y="590" type="line" />
      <point x="418" y="590" type="line" />
      <point x="418" y="680" type="line" />
      <point x="347" y="680" type="line" />
    </contour>
  </outline>
</glyph>
<glyph name="Lslash" format="2">
  <advance width="536" />
  <unicode hex="0141" />
  <outline>
    <component base="L" />
    <contour>
      <point x="42" y="315" type="line" />
      <point x="272" y="406" type="line" />
      <point x="272" y="473" type="line" />
      <point x="43" y="382" type="line" />
    </contour>
  </outline>
</glyph>
<glyph name="lslash" format="2">
  <advance width="297" />
  <unicode hex="0142" />
  <outline>
    <component base="l" />
    <contour>
      <point x="21" y="317" type="line" />
      <point x="216" y="404" type="line" />
      <point x="216" y="474" type="line" />
      <point x="22" y="388" type="line" />
    </contour>
  </outline>
</glyph>
<glyph name="Eng" format="2">
  <advance width="664" />
  <unicode hex="014A" />
  <outline>
    <contour>
      <point x="410" y="-166" type="line" />
      <point x="458" y="-166" type="line" smooth="yes" />
      <point x="543" y="-166" />
      <point x="588" y="-120" />
      <point x="588" y="-32" type="curve" smooth="yes" />
      <point x="588" y="680" type="line" />
      <point x="512" y="680" type="line" />
      <point x="512" y="138" type="line" />
      <point x="153" y="680" type="line" />
      <point x="77" y="680" type="line" />
      <point x="77" y="0" type="line" />
      <point x="153" y="0" type="line" />
      <point x="153" y="543" type="line" />
      <point x="512" y="0" type="line" />
      <point x="512" y="-49" type="line" smooth="yes" />
      <point x="512" y="-90" />
      <point x="503" y="-103" />
      <point x="466" y="-103" type="curve" smooth="yes" />
      <point x="410" y="-103" type="line" />
    </contour>
  </outline>
</glyph>
<glyph name="eng" format="2">
  <advance width="527" />
  <unicode hex="014B" />
  <outline>
    <contour>
      <point x="277" y="-166" type="line" />
      <point x="326" y="-166" type="line" smooth="yes" />
      <point x="414" y="-166" />
      <point x="457" y="-120" />
      <point x="457" y="-30" type="curve" smooth="yes" />
      <point x="457" y="325" type="line" smooth="yes" />
      <point x="457" y="440" />
      <point x="394" y="506" />
      <point x="285" y="506" type="curve" smooth="yes" />
      <point x="223" y="506" />
      <point x="173" y="483" />
      <point x="142" y="438" type="curve" />
      <point x="142" y="500" type="line" />
      <point x="72" y="500" type="line" />
      <point x="72" y="0" type="line" />
      <point x="143" y="0" type="line" />
      <point x="143" y="312" type="line" smooth="yes" />
      <point x="143" y="394" />
      <point x="191" y="442" />
      <point x="266" y="442" type="curve" smooth="yes" />
      <point x="342" y="442" />
      <point x="385" y="398" />
      <point x="385" y="315" type="curve" smooth="yes" />
      <point x="385" y="-26" type="line" smooth="yes" />
      <point x="385" y="-80" />
      <point x="366" y="-102" />
      <point x="318" y="-102" type="curve" smooth="yes" />
      <point x="277" y="-102" type="line" />
    </contour>
  </outline>
</glyph>
<glyph name="OE" format="2">
  <advance width="879" />
  <unicode hex="0152" />
  <outline>
    <contour>
      <point x="299" y="-8" type="curve" smooth="yes" />
      <point x="368" y="-8" />
      <point x="423" y="11" />
      <point x="464" y="48" type="curve" />
      <point x="464" y="0" type="line" />
      <point x="832" y="0" type="line" />
      <point x="832" y="65" type="line" />
      <point x="535" y="65" type="line" />
      <point x="536" y="314" type="line" />
      <point x="782" y="314" type="line" />
      <point x="782" y="378" type="line" />
      <point x="536" y="378" type="line" />
      <point x="535" y="615" type="line" />
      <point x="832" y="615" type="line" />
      <point x="832" y="680" type="line" />
      <point x="464" y="680" type="line" />
      <point x="464" y="632" type="line" />
      <point x="424" y="669" />
      <point x="369" y="689" />
      <point x="300" y="689" type="curve" smooth="yes" />
      <point x="156" y="689" />
      <point x="65" y="609" />
      <point x="65" y="428" type="curve" smooth="yes" />
      <point x="65" y="252" type="line" smooth="yes" />
      <point x="65" y="71" />
      <point x="155" y="-8" />
    </contour>
    <contour>
      <point x="137" y="248" type="curve" smooth="yes" />
      <point x="137" y="425" type="line" smooth="yes" />
      <point x="137" y="564" />
      <point x="191" y="623" />
      <point x="301" y="623" type="curve" smooth="yes" />
      <point x="410" y="623" />
      <point x="464" y="557" />
      <point x="464" y="425" type="curve" smooth="yes" />
      <point x="464" y="248" type="line" smooth="yes" />
      <point x="464" y="121" />
      <point x="410" y="58" />
      <point x="301" y="58" type="curve" smooth="yes" />
      <point x="193" y="58" />
      <point x="137" y="115" />
    </contour>
  </outline>
</glyph>
<glyph name="oe" format="2">
  <advance width="842" />
  <unicode hex="0153" />
  <outline>
    <contour>
      <point x="260" y="-7" type="curve" smooth="yes" />
      <point x="335" y="-7" />
      <point x="391" y="19" />
      <point x="424" y="70" type="curve" />
      <point x="460" y="19" />
      <point x="516" y="-7" />
      <point x="593" y="-7" type="curve" smooth="yes" />
      <point x="709" y="-7" />
      <point x="781" y="58" />
      <point x="782" y="152" type="curve" smooth="yes" />
      <point x="782" y="157" type="line" />
      <point x="713" y="157" type="line" />
      <point x="713" y="154" type="line" smooth="yes" />
      <point x="712" y="94" />
      <point x="669" y="57" />
      <point x="596" y="57" type="curve" smooth="yes" />
      <point x="510" y="57" />
      <point x="460" y="101" />
      <point x="460" y="213" type="curve" smooth="yes" />
      <point x="460" y="236" type="line" />
      <point x="786" y="236" type="line" />
      <point x="786" y="294" type="line" smooth="yes" />
      <point x="786" y="437" />
      <point x="709" y="509" />
      <point x="587" y="509" type="curve" smooth="yes" />
      <point x="516" y="509" />
      <point x="459" y="484" />
      <point x="424" y="432" type="curve" />
      <point x="391" y="483" />
      <point x="335" y="509" />
      <point x="260" y="509" type="curve" smooth="yes" />
      <point x="135" y="509" />
      <point x="56" y="441" />
      <point x="56" y="294" type="curve" smooth="yes" />
      <point x="56" y="207" type="line" smooth="yes" />
      <point x="56" y="62" />
      <point x="135" y="-7" />
    </contour>
    <contour>
      <point x="128" y="211" type="curve" smooth="yes" />
      <point x="128" y="291" type="line" smooth="yes" />
      <point x="128" y="401" />
      <point x="176" y="443" />
      <point x="259" y="443" type="curve" smooth="yes" />
      <point x="341" y="443" />
      <point x="388" y="401" />
      <point x="388" y="291" type="curve" smooth="yes" />
      <point x="388" y="211" type="line" smooth="yes" />
      <point x="388" y="101" />
      <point x="340" y="57" />
      <point x="259" y="57" type="curve" smooth="yes" />
      <point x="176" y="57" />
      <point x="128" y="101" />
    </contour>
    <contour>
      <point x="460" y="289" type="line" />
      <point x="460" y="301" type="line" smooth="yes" />
      <point x="460" y="409" />
      <point x="510" y="444" />
      <point x="588" y="444" type="curve" smooth="yes" />
      <point x="667" y="444" />
      <point x="714" y="403" />
      <point x="714" y="304" type="curve" smooth="yes" />
      <point x="714" y="289" type="line" />
    </contour>
  </outline>
</glyph>
<glyph name="tbar" format="2">
  <advance width="335" />
  <unicode hex="0167" />
  <outline>
    <component base="t" />
    <contour>
      <point x="34" y="302" type="line" />
      <point x="291" y="302" type="line" />
      <point x="291" y="353" type="line" />
      <point x="34" y="353" type="line" />
    </contour>
  </outline>
</glyph>
<glyph name="Uogonek" format="2">
  <advance width="625" />
  <unicode hex="0172" />
  <outline>
    <component base="U" />
    <contour>
      <point x="427" y="-210" type="curve" />
      <point x="427" y="-150" type="line" />
      <point x="373" y="-150" />
      <point x="348" y="-147" />
      <point x="315" y="-102" type="curve" />
      <point x="470" y="51" type="line" />
      <point x="369" y="3" type="line" />
      <point x="248" y="-97" type="line" />
      <point x="257" y="-123" />
      <point x="269" y="-144" />
      <point x="288" y="-161" type="curve" smooth="yes" />
      <point x="322" y="-192" />
      <point x="353" y="-209" />
    </contour>
  </outline>
</glyph>
<glyph name="uogonek" format="2">
  <advance width="542" />
  <unicode hex="0173" />
  <outline>
    <component base="u" />
    <contour>
      <point x="367" y="-210" type="curve" />
      <point x="367" y="-143" type="line" />
      <point x="314" y="-143" />
      <point x="280" y="-137" />
      <point x="246" y="-95" type="curve" />
      <point x="395" y="38" type="line" />
      <point x="298" y="7" type="line" />
      <point x="169" y="-85" type="line" />
      <point x="178" y="-114" />
      <point x="192" y="-137" />
      <point x="213" y="-155" type="curve" smooth="yes" />
      <point x="251" y="-190" />
      <point x="291" y="-209" />
    </contour>
  </outline>
</glyph>
<glyph name="florin" format="2">
  <advance width="417" />
  <unicode hex="0192" />
  <outline>
    <contour>
      <point x="13" y="-150" type="line" />
      <point x="46" y="-150" type="line" smooth="yes" />
      <point x="144" y="-150" />
      <point x="188" y="-110" />
      <point x="204" y="2" type="curve" smooth="yes" />
      <point x="254" y="339" type="line" />
      <point x="373" y="339" type="line" />
      <point x="373" y="405" type="line" />
      <point x="264" y="405" type="line" />
      <point x="284" y="529" type="line" smooth="yes" />
      <point x="293" y="591" />
      <point x="316" y="611" />
      <point x="367" y="611" type="curve" smooth="yes" />
      <point x="404" y="611" type="line" />
      <point x="404" y="680" type="line" />
      <point x="367" y="680" type="line" smooth="yes" />
      <point x="270" y="680" />
      <point x="225" y="637" />
      <point x="210" y="529" type="curve" smooth="yes" />
      <point x="190" y="405" type="line" />
      <point x="91" y="405" type="line" />
      <point x="91" y="339" type="line" />
      <point x="180" y="339" type="line" />
      <point x="131" y="2" type="line" smooth="yes" />
      <point x="121" y="-63" />
      <point x="99" y="-81" />
      <point x="44" y="-81" type="curve" smooth="yes" />
      <point x="13" y="-81" type="line" />
    </contour>
  </outline>
</glyph>
<glyph name="lbar" format="2">
  <advance width="297" />
  <unicode hex="019A" />
  <outline>
    <component base="l" />
    <contour>
      <point x="17" y="307" type="line" />
      <point x="251" y="307" type="line" />
      <point x="251" y="376" type="line" />
      <point x="17" y="376" type="line" />
    </contour>
  </outline>
</glyph>
<glyph name="oogonek" format="2">
  <advance width="497" />
  <unicode hex="01EB" />
  <outline>
    <contour>
      <point x="298" y="-209" type="curve" />
      <point x="298" y="-149" type="line" />
      <point x="244" y="-149" />
      <point x="219" y="-146" />
      <point x="186" y="-101" type="curve" />
      <point x="296" y="-2" type="line" />
      <point x="384" y="14" />
      <point x="440" y="77" />
      <point x="440" y="199" type="curve" smooth="yes" />
      <point x="440" y="301" type="line" smooth="yes" />
      <point x="440" y="443" />
      <point x="364" y="506" />
      <point x="250" y="506" type="curve" smooth="yes" />
      <point x="133" y="506" />
      <point x="58" y="443" />
      <point x="58" y="301" type="curve" smooth="yes" />
      <point x="58" y="199" type="line" smooth="yes" />
      <point x="58" y="64" />
      <point x="125" y="1" />
      <point x="230" y="-5" type="curve" />
      <point x="119" y="-96" type="line" />
      <point x="128" y="-122" />
      <point x="140" y="-143" />
      <point x="159" y="-160" type="curve" smooth="yes" />
      <point x="193" y="-191" />
      <point x="224" y="-208" />
    </contour>
    <contour>
      <point x="125" y="203" type="curve" smooth="yes" />
      <point x="125" y="297" type="line" smooth="yes" />
      <point x="125" y="407" />
      <point x="173" y="445" />
      <point x="250" y="445" type="curve" smooth="yes" />
      <point x="325" y="445" />
      <point x="372" y="407" />
      <point x="372" y="297" type="curve" smooth="yes" />
      <point x="372" y="203" type="line" smooth="yes" />
      <point x="372" y="93" />
      <point x="325" y="54" />
      <point x="250" y="54" type="curve" smooth="yes" />
      <point x="173" y="54" />
      <point x="125" y="93" />
    </contour>
  </outline>
</glyph>
<glyph name="dotlessj" format="2">
  <advance width="224" />
  <unicode hex="0237" />
  <anchor x="110" y="500" name="top" />
  <outline>
    <contour>
      <point x="-37" y="-150" type="line" />
      <point x="13" y="-150" type="line" smooth="yes" />
      <point x="99" y="-150" />
      <point x="144" y="-102" />
      <point x="144" y="-13" type="curve" smooth="yes" />
      <point x="144" y="500" type="line" />
      <point x="73" y="500" type="line" />
      <point x="73" y="-9" type="line" smooth="yes" />
      <point x="73" y="-63" />
      <point x="53" y="-85" />
      <point x="5" y="-85" type="curve" smooth="yes" />
      <point x="-37" y="-85" type="line" />
    </contour>
  </outline>
</glyph>
<glyph name="circumflex" format="2">
  <advance width="492" />
  <unicode hex="02C6" />
  <outline>
    <contour>
      <point x="114" y="553" type="line" />
      <point x="174" y="553" type="line" />
      <point x="246" y="647" type="line" />
      <point x="317" y="553" type="line" />
      <point x="378" y="553" type="line" />
      <point x="273" y="695" type="line" />
      <point x="218" y="695" type="line" />
    </contour>
  </outline>
</glyph>
<glyph name="caron" format="2">
  <advance width="492" />
  <unicode hex="02C7" />
  <outline>
    <contour>
      <point x="218" y="555" type="line" />
      <point x="273" y="555" type="line" />
      <point x="378" y="696" type="line" />
      <point x="317" y="696" type="line" />
      <point x="246" y="603" type="line" />
      <point x="174" y="696" type="line" />
      <point x="114" y="696" type="line" />
    </contour>
  </outline>
</glyph>
<glyph name="dotaccent" format="2">
  <advance width="492" />
  <unicode hex="02D9" />
  <outline>
    <contour>
      <point x="209" y="582" type="line" />
      <point x="284" y="582" type="line" />
      <point x="284" y="670" type="line" />
      <point x="209" y="670" type="line" />
    </contour>
  </outline>
</glyph>
<glyph name="ring" format="2">
  <advance width="492" />
  <unicode hex="02DA" />
  <outline>
    <contour>
      <point x="246" y="551" type="curve" smooth="yes" />
      <point x="298" y="551" />
      <point x="337" y="590" />
      <point x="337" y="643" type="curve" smooth="yes" />
      <point x="337" y="695" />
      <point x="298" y="733" />
      <point x="246" y="733" type="curve" smooth="yes" />
      <point x="193" y="733" />
      <point x="156" y="695" />
      <point x="156" y="643" type="curve" smooth="yes" />
      <point x="156" y="591" />
      <point x="194" y="551" />
    </contour>
    <contour>
      <point x="195" y="643" type="curve" smooth="yes" />
      <point x="195" y="672" />
      <point x="217" y="695" />
      <point x="246" y="695" type="curve" smooth="yes" />
      <point x="275" y="695" />
      <point x="297" y="672" />
      <point x="297" y="643" type="curve" smooth="yes" />
      <point x="297" y="612" />
      <point x="275" y="590" />
      <point x="246" y="590" type="curve" smooth="yes" />
      <point x="217" y="590" />
      <point x="195" y="612" />
    </contour>
  </outline>
</glyph>
<glyph name="ogonek" format="2">
  <advance width="492" />
  <unicode hex="02DB" />
  <outline>
    <contour>
      <point x="407" y="-209" type="curve" />
      <point x="407" y="-143" type="line" />
      <point x="353" y="-142" />
      <point x="319" y="-137" />
      <point x="286" y="-94" type="curve" />
      <point x="407" y="0" type="line" />
      <point x="407" y="12" type="line" />
      <point x="343" y="12" type="line" />
      <point x="209" y="-85" type="line" />
      <point x="217" y="-113" />
      <point x="232" y="-137" />
      <point x="252" y="-155" type="curve" smooth="yes" />
      <point x="290" y="-189" />
      <point x="331" y="-208" />
    </contour>
  </outline>
</glyph>
<glyph name="gravecomb" format="2">
  <unicode hex="0300" />
  <anchor x="0" y="499" name="_top" />
  <outline>
    <contour>
      <point x="-6" y="564" type="line" />
      <point x="56" y="564" type="line" />
      <point x="-41" y="687" type="line" />
      <point x="-124" y="687" type="line" />
    </contour>
  </outline>
</glyph>
<glyph name="circumflexcmb" format="2">
  <unicode hex="0302" />
  <anchor x="0" y="499" name="_top" />
  <outline>
    <contour>
      <point x="-140" y="555" type="line" />
      <point x="-75" y="555" type="line" />
      <point x="0" y="647" type="line" />
      <point x="74" y="555" type="line" />
      <point x="139" y="555" type="line" />
      <point x="28" y="697" type="line" />
      <point x="-29" y="697" type="line" />
    </contour>
  </outline>
</glyph>
<glyph name="tildecomb" format="2">
  <unicode hex="0303" />
  <anchor x="0" y="499" name="_top" />
  <outline>
    <contour>
      <point x="-129" y="561" type="line" />
      <point x="-101" y="589" />
      <point x="-86" y="599" />
      <point x="-60" y="599" type="curve" smooth="yes" />
      <point x="-42" y="599" />
      <point x="-29" y="594" />
      <point x="-8" y="582" type="curve" smooth="yes" />
      <point x="17" y="567" />
      <point x="31" y="562" />
      <point x="56" y="562" type="curve" smooth="yes" />
      <point x="82" y="562" />
      <point x="106" y="574" />
      <point x="128" y="598" type="curve" />
      <point x="128" y="661" type="line" />
      <point x="100" y="633" />
      <point x="85" y="622" />
      <point x="60" y="622" type="curve" smooth="yes" />
      <point x="39" y="622" />
      <point x="26" y="630" />
      <point x="5" y="642" type="curve" smooth="yes" />
      <point x="-18" y="655" />
      <point x="-35" y="661" />
      <point x="-57" y="661" type="curve" smooth="yes" />
      <point x="-85" y="661" />
      <point x="-105" y="650" />
      <point x="-129" y="623" type="curve" />
    </contour>
  </outline>
</glyph>
<glyph name="macroncmb" format="2">
  <unicode hex="0304" />
  <anchor x="0" y="499" name="_top" />
  <outline>
    <contour>
      <point x="-133" y="581" type="line" />
      <point x="133" y="581" type="line" />
      <point x="133" y="645" type="line" />
      <point x="-133" y="645" type="line" />
    </contour>
  </outline>
</glyph>
<glyph name="brevecmb" format="2">
  <unicode hex="0306" />
  <anchor x="0" y="499" name="_top" />
  <outline>
    <contour>
      <point x="0" y="551" type="curve" smooth="yes" />
      <point x="86" y="551" />
      <point x="130" y="597" />
      <point x="130" y="680" type="curve" smooth="yes" />
      <point x="130" y="697" type="line" />
      <point x="69" y="697" type="line" />
      <point x="69" y="680" type="line" smooth="yes" />
      <point x="69" y="632" />
      <point x="42" y="602" />
      <point x="0" y="602" type="curve" smooth="yes" />
      <point x="-42" y="602" />
      <point x="-69" y="632" />
      <point x="-69" y="680" type="curve" smooth="yes" />
      <point x="-69" y="697" type="line" />
      <point x="-130" y="697" type="line" />
      <point x="-130" y="680" type="line" smooth="yes" />
      <point x="-130" y="597" />
      <point x="-86" y="551" />
    </contour>
  </outline>
</glyph>
<glyph name="dotaccentcmb" format="2">
  <unicode hex="0307" />
  <anchor x="0" y="499" name="_top" />
  <outline>
    <contour>
      <point x="-37" y="581" type="line" />
      <point x="37" y="581" type="line" />
      <point x="37" y="670" type="line" />
      <point x="-37" y="670" type="line" />
    </contour>
  </outline>
</glyph>
<glyph name="dieresiscmb" format="2">
  <unicode hex="0308" />
  <anchor x="0" y="499" name="_top" />
  <outline>
    <contour>
      <point x="-130" y="570" type="line" />
      <point x="-52" y="570" type="line" />
      <point x="-52" y="657" type="line" />
      <point x="-130" y="657" type="line" />
    </contour>
    <contour>
      <point x="51" y="570" type="line" />
      <point x="129" y="570" type="line" />
      <point x="129" y="657" type="line" />
      <point x="51" y="657" type="line" />
    </contour>
  </outline>
</glyph>
<glyph name="ringcmb" format="2">
  <unicode hex="030A" />
  <anchor x="0" y="499" name="_top" />
  <outline>
    <contour>
      <point x="0" y="553" type="curve" smooth="yes" />
      <point x="52" y="553" />
      <point x="90" y="592" />
      <point x="90" y="644" type="curve" smooth="yes" />
      <point x="90" y="696" />
      <point x="52" y="735" />
      <point x="0" y="735" type="curve" smooth="yes" />
      <point x="-53" y="735" />
      <point x="-90" y="695" />
      <point x="-90" y="644" type="curve" smooth="yes" />
      <point x="-90" y="592" />
      <point x="-53" y="553" />
    </contour>
    <contour>
      <point x="-50" y="644" type="curve" smooth="yes" />
      <point x="-50" y="674" />
      <point x="-29" y="696" />
      <point x="0" y="696" type="curve" smooth="yes" />
      <point x="29" y="696" />
      <point x="50" y="674" />
      <point x="50" y="644" type="curve" smooth="yes" />
      <point x="50" y="614" />
      <point x="29" y="592" />
      <point x="0" y="592" type="curve" smooth="yes" />
      <point x="-29" y="592" />
      <point x="-50" y="614" />
    </contour>
  </outline>
</glyph>
<glyph name="hungarumlautcmb" format="2">
  <unicode hex="030B" />
  <anchor x="0" y="499" name="_top" />
  <outline>
    <contour>
      <point x="-111" y="565" type="line" />
      <point x="-43" y="565" type="line" />
      <point x="78" y="689" type="line" />
      <point x="-11" y="689" type="line" />
    </contour>
    <contour>
      <point x="33" y="565" type="line" />
      <point x="99" y="565" type="line" />
      <point x="221" y="689" type="line" />
      <point x="132" y="689" type="line" />
    </contour>
  </outline>
</glyph>
<glyph name="caroncmb" format="2">
  <unicode hex="030C" />
  <anchor x="0" y="499" name="_top" />
  <outline>
    <contour>
      <point x="-29" y="556" type="line" />
      <point x="28" y="556" type="line" />
      <point x="138" y="697" type="line" />
      <point x="73" y="697" type="line" />
      <point x="0" y="605" type="line" />
      <point x="-74" y="697" type="line" />
      <point x="-139" y="697" type="line" />
    </contour>
  </outline>
</glyph>
<glyph name="commaturnedabovecmb" format="2">
  <unicode hex="0312" />
  <anchor x="0" y="499" name="_top" />
  <outline>
    <contour>
      <point x="-74" y="564" type="line" />
      <point x="9" y="564" type="line" />
      <point x="107" y="687" type="line" />
      <point x="44" y="687" type="line" />
    </contour>
  </outline>
</glyph>
<glyph name="dotbelowcomb" format="2">
  <unicode hex="0323" />
  <anchor x="0" y="0" name="_bottom" />
  <outline>
    <contour>
      <point x="-36" y="-171" type="line" />
      <point x="36" y="-171" type="line" />
      <point x="36" y="-83" type="line" />
      <point x="-36" y="-83" type="line" />
    </contour>
  </outline>
</glyph>
<glyph name="commaaccentcomb" format="2">
  <unicode hex="0326" />
  <anchor x="0" y="0" name="_bottom" />
  <outline>
    <contour>
      <point x="-31" y="-166" type="line" />
      <point x="31" y="-107" type="line" />
      <point x="31" y="-38" type="line" />
      <point x="-31" y="-38" type="line" />
    </contour>
  </outline>
</glyph>
<glyph name="cedillacmb" format="2">
  <unicode hex="0327" />
  <anchor x="0" y="0" name="_bottom" />
  <outline>
    <contour>
      <point x="178" y="-149" type="line" />
      <point x="252" y="-149" type="line" />
      <point x="310" y="12" type="line" />
      <point x="246" y="12" type="line" />
    </contour>
  </outline>
</glyph>
<glyph name="ogonekcmb" format="2">
  <unicode hex="0328" />
  <anchor x="0" y="0" name="_bottom" />
  <outline>
    <contour>
      <point x="51" y="-209" type="curve" />
      <point x="51" y="-149" type="line" />
      <point x="-3" y="-149" />
      <point x="-28" y="-146" />
      <point x="-62" y="-101" type="curve" />
      <point x="51" y="0" type="line" />
      <point x="51" y="10" type="line" />
      <point x="-12" y="0" type="line" />
      <point x="-128" y="-96" type="line" />
      <point x="-119" y="-122" />
      <point x="-107" y="-143" />
      <point x="-88" y="-160" type="curve" smooth="yes" />
      <point x="-54" y="-191" />
      <point x="-23" y="-208" />
    </contour>
  </outline>
</glyph>
<glyph name="alpha" format="2">
  <advance width="653" />
  <unicode hex="03B1" />
  <outline>
    <contour>
      <point x="265" y="-6" type="curve" smooth="yes" />
      <point x="347" y="-6" />
      <point x="413" y="23" />
      <point x="444" y="86" type="curve" />
      <point x="479" y="38" />
      <point x="531" y="15" />
      <point x="602" y="14" type="curve" />
      <point x="602" y="73" type="line" />
      <point x="531" y="75" />
      <point x="484" y="109" />
      <point x="484" y="208" type="curve" smooth="yes" />
      <point x="484" y="292" type="line" smooth="yes" />
      <point x="484" y="391" />
      <point x="530" y="424" />
      <point x="602" y="426" type="curve" />
      <point x="602" y="486" type="line" />
      <point x="531" y="485" />
      <point x="479" y="463" />
      <point x="444" y="415" type="curve" />
      <point x="413" y="477" />
      <point x="347" y="506" />
      <point x="265" y="506" type="curve" smooth="yes" />
      <point x="139" y="506" />
      <point x="61" y="443" />
      <point x="61" y="301" type="curve" smooth="yes" />
      <point x="61" y="199" type="line" smooth="yes" />
      <point x="61" y="57" />
      <point x="139" y="-6" />
    </contour>
    <contour>
      <point x="132" y="203" type="curve" smooth="yes" />
      <point x="132" y="297" type="line" smooth="yes" />
      <point x="132" y="407" />
      <point x="183" y="445" />
      <point x="265" y="445" type="curve" smooth="yes" />
      <point x="345" y="445" />
      <point x="403" y="407" />
      <point x="403" y="297" type="curve" smooth="yes" />
      <point x="403" y="203" type="line" smooth="yes" />
      <point x="403" y="93" />
      <point x="345" y="54" />
      <point x="265" y="54" type="curve" smooth="yes" />
      <point x="183" y="54" />
      <point x="132" y="93" />
    </contour>
  </outline>
</glyph>
<glyph name="Djecyr" format="2">
  <advance width="713" />
  <unicode hex="0402" />
  <anchor x="215" y="0" name="b.cedilla" />
  <anchor x="243" y="-83" name="bottom" />
  <anchor x="226" y="741" name="top" />
  <outline>
    <contour>
      <point x="207" y="0" type="line" />
      <point x="282" y="0" type="line" />
      <point x="282" y="333" type="line" />
      <point x="427" y="333" type="line" smooth="yes" />
      <point x="524" y="333" />
      <point x="573" y="289" />
      <point x="573" y="203" type="curve" smooth="yes" />
      <point x="573" y="114" />
      <point x="525" y="69" />
      <point x="426" y="68" type="curve" smooth="yes" />
      <point x="385" y="68" type="line" />
      <point x="385" y="0" type="line" />
      <point x="432" y="0" type="line" smooth="yes" />
      <point x="569" y="0" />
      <point x="649" y="74" />
      <point x="649" y="203" type="curve" smooth="yes" />
      <point x="649" y="326" />
      <point x="568" y="401" />
      <point x="432" y="401" type="curve" smooth="yes" />
      <point x="282" y="401" type="line" />
      <point x="282" y="612" type="line" />
      <point x="480" y="612" type="line" />
      <point x="480" y="680" type="line" />
      <point x="8" y="680" type="line" />
      <point x="8" y="612" type="line" />
      <point x="207" y="612" type="line" />
    </contour>
  </outline>
</glyph>
<glyph name="Eukrcyr" format="2">
  <advance width="616" />
  <unicode hex="0404" />
  <guideline x="315" y="0" angle="90" name="h1" />
  <anchor x="315" y="740" name="top" />
  <outline>
    <contour>
      <point x="316" y="-8" type="curve" smooth="yes" />
      <point x="454" y="-8" />
      <point x="555" y="66" />
      <point x="555" y="203" type="curve" smooth="yes" />
      <point x="555" y="207" type="line" />
      <point x="480" y="207" type="line" />
      <point x="480" y="202" type="line" smooth="yes" />
      <point x="480" y="110" />
      <point x="413" y="62" />
      <point x="316" y="62" type="curve" smooth="yes" />
      <point x="191" y="62" />
      <point x="140" y="137" />
      <point x="140" y="260" type="curve" smooth="yes" />
      <point x="140" y="313" type="line" />
      <point x="370" y="313" type="line" />
      <point x="370" y="382" type="line" />
      <point x="140" y="382" type="line" />
      <point x="140" y="417" type="line" smooth="yes" />
      <point x="140" y="540" />
      <point x="187" y="619" />
      <point x="316" y="619" type="curve" smooth="yes" />
      <point x="411" y="619" />
      <point x="480" y="573" />
      <point x="480" y="483" type="curve" smooth="yes" />
      <point x="480" y="475" type="line" />
      <point x="557" y="475" type="line" />
      <point x="557" y="484" type="line" smooth="yes" />
      <point x="557" y="616" />
      <point x="453" y="689" />
      <point x="316" y="689" type="curve" smooth="yes" />
      <point x="143" y="689" />
      <point x="63" y="586" />
      <point x="63" y="417" type="curve" smooth="yes" />
      <point x="63" y="263" type="line" smooth="yes" />
      <point x="63" y="95" />
      <point x="144" y="-8" />
    </contour>
  </outline>
</glyph>
<glyph name="Ljecyr" format="2">
  <advance width="890" />
  <unicode hex="0409" />
  <outline>
    <component base="Elcyr" />
    <contour>
      <point x="420" y="0" type="line" />
      <point x="612" y="0" type="line" smooth="yes" />
      <point x="746" y="0" />
      <point x="825" y="65" />
      <point x="825" y="193" type="curve" smooth="yes" />
      <point x="825" y="295" />
      <point x="744" y="380" />
      <point x="612" y="380" type="curve" smooth="yes" />
      <point x="420" y="380" type="line" />
      <point x="420" y="316" type="line" />
      <point x="606" y="316" type="line" smooth="yes" />
      <point x="702" y="316" />
      <point x="753" y="260" />
      <point x="753" y="193" type="curve" smooth="yes" />
      <point x="753" y="103" />
      <point x="703" y="65" />
      <point x="606" y="65" type="curve" smooth="yes" />
      <point x="420" y="65" type="line" />
    </contour>
  </outline>
</glyph>
<glyph name="Njecyr" format="2">
  <advance width="998" />
  <unicode hex="040A" />
  <outline>
    <component base="H" />
    <contour>
      <point x="517" y="0" type="line" />
      <point x="717" y="0" type="line" smooth="yes" />
      <point x="856" y="0" />
      <point x="936" y="67" />
      <point x="936" y="196" type="curve" smooth="yes" />
      <point x="936" y="307" />
      <point x="854" y="388" />
      <point x="717" y="388" type="curve" smooth="yes" />
      <point x="517" y="388" type="line" />
      <point x="517" y="318" type="line" />
      <point x="713" y="318" type="line" smooth="yes" />
      <point x="810" y="318" />
      <point x="859" y="268" />
      <point x="859" y="196" type="curve" smooth="yes" />
      <point x="859" y="107" />
      <point x="811" y="69" />
      <point x="712" y="69" type="curve" smooth="yes" />
      <point x="517" y="69" type="line" />
    </contour>
  </outline>
</glyph>
<glyph name="Tshecyr" format="2">
  <advance width="717" />
  <unicode hex="040B" />
  <outline>
    <contour>
      <point x="202" y="0" type="line" />
      <point x="273" y="0" type="line" />
      <point x="273" y="335" type="line" />
      <point x="326" y="349" />
      <point x="380" y="354" />
      <point x="433" y="354" type="curve" smooth="yes" />
      <point x="529" y="354" />
      <point x="580" y="289" />
      <point x="580" y="203" type="curve" smooth="yes" />
      <point x="580" y="0" type="line" />
      <point x="652" y="0" type="line" />
      <point x="652" y="203" type="line" smooth="yes" />
      <point x="652" y="324" />
      <point x="570" y="418" />
      <point x="439" y="418" type="curve" smooth="yes" />
      <point x="384" y="418" />
      <point x="328" y="414" />
      <point x="273" y="399" type="curve" />
      <point x="273" y="615" type="line" />
      <point x="467" y="615" type="line" />
      <point x="467" y="680" type="line" />
      <point x="8" y="680" type="line" />
      <point x="8" y="615" type="line" />
      <point x="202" y="615" type="line" />
    </contour>
  </outline>
</glyph>
<glyph name="Dzhecyr" format="2">
  <advance width="588" />
  <unicode hex="040F" />
  <outline>
    <contour>
      <point x="258" y="-164" type="line" />
      <point x="330" y="-164" type="line" />
      <point x="330" y="0" type="line" />
      <point x="509" y="0" type="line" />
      <point x="509" y="680" type="line" />
      <point x="437" y="680" type="line" />
      <point x="437" y="64" type="line" />
      <point x="151" y="64" type="line" />
      <point x="151" y="680" type="line" />
      <point x="79" y="680" type="line" />
      <point x="79" y="0" type="line" />
      <point x="258" y="0" type="line" />
    </contour>
  </outline>
</glyph>
<glyph name="Becyr" format="2">
  <advance width="601" />
  <unicode hex="0411" />
  <outline>
    <contour>
      <point x="79" y="0" type="line" />
      <point x="323" y="0" type="line" smooth="yes" />
      <point x="458" y="0" />
      <point x="537" y="75" />
      <point x="537" y="203" type="curve" smooth="yes" />
      <point x="537" y="324" />
      <point x="455" y="399" />
      <point x="323" y="399" type="curve" smooth="yes" />
      <point x="151" y="399" type="line" />
      <point x="151" y="616" type="line" />
      <point x="492" y="616" type="line" />
      <point x="492" y="680" type="line" />
      <point x="79" y="680" type="line" />
    </contour>
    <contour>
      <point x="151" y="65" type="line" />
      <point x="151" y="335" type="line" />
      <point x="317" y="335" type="line" smooth="yes" />
      <point x="414" y="335" />
      <point x="465" y="289" />
      <point x="465" y="203" type="curve" smooth="yes" />
      <point x="465" y="113" />
      <point x="415" y="65" />
      <point x="317" y="65" type="curve" smooth="yes" />
    </contour>
  </outline>
</glyph>
<glyph name="Gecyr" format="2">
  <advance width="499" />
  <unicode hex="0413" />
  <guideline x="304" y="0" angle="90" name="h1" />
  <anchor x="304" y="744" name="top" />
  <outline>
    <contour>
      <point x="79" y="0" type="line" />
      <point x="151" y="0" type="line" />
      <point x="151" y="616" type="line" />
      <point x="492" y="616" type="line" />
      <point x="492" y="680" type="line" />
      <point x="79" y="680" type="line" />
    </contour>
  </outline>
</glyph>
<glyph name="Decyr" format="2">
  <advance width="625" />
  <unicode hex="0414" />
  <outline>
    <contour>
      <point x="10" y="-164" type="line" />
      <point x="82" y="-164" type="line" />
      <point x="82" y="0" type="line" />
      <point x="543" y="0" type="line" />
      <point x="543" y="-164" type="line" />
      <point x="616" y="-164" type="line" />
      <point x="616" y="64" type="line" />
      <point x="542" y="64" type="line" />
      <point x="542" y="680" type="line" />
      <point x="166" y="680" type="line" />
      <point x="161" y="543" type="line" smooth="yes" />
      <point x="153" y="363" />
      <point x="114" y="64" />
      <point x="54" y="64" type="curve" />
      <point x="10" y="64" type="line" />
    </contour>
    <contour>
      <point x="156" y="64" type="line" />
      <point x="180" y="82" />
      <point x="220" y="168" />
      <point x="234" y="548" type="curve" smooth="yes" />
      <point x="237" y="616" type="line" />
      <point x="469" y="616" type="line" />
      <point x="469" y="64" type="line" />
    </contour>
  </outline>
</glyph>
<glyph name="Zhecyr" format="2">
  <advance width="951" />
  <unicode hex="0416" />
  <guideline x="215" y="0" angle="90" name="vertical" />
  <guideline x="0" y="680" angle="0" name="horizontal" />
  <guideline x="408" y="0" angle="90" name="vertical" />
  <guideline x="0" y="680" angle="0" name="horizontal" />
  <anchor x="400" y="680" name="top" />
  <outline>
    <contour>
      <point x="10" y="0" type="line" />
      <point x="93" y="0" type="line" />
      <point x="337" y="316" type="line" />
      <point x="440" y="316" type="line" />
      <point x="440" y="0" type="line" />
      <point x="512" y="0" type="line" />
      <point x="512" y="316" type="line" />
      <point x="615" y="316" type="line" />
      <point x="858" y="0" type="line" />
      <point x="942" y="0" type="line" />
      <point x="661" y="371" type="line" />
      <point x="911" y="680" type="line" />
      <point x="825" y="680" type="line" />
      <point x="589" y="380" type="line" />
      <point x="512" y="380" type="line" />
      <point x="512" y="680" type="line" />
      <point x="440" y="680" type="line" />
      <point x="440" y="380" type="line" />
      <point x="363" y="380" type="line" />
      <point x="126" y="680" type="line" />
      <point x="40" y="680" type="line" />
      <point x="290" y="371" type="line" />
    </contour>
  </outline>
</glyph>
<glyph name="Zecyr" format="2">
  <advance width="582" />
  <unicode hex="0417" />
  <outline>
    <contour>
      <point x="289" y="-6" type="curve" smooth="yes" />
      <point x="419" y="-6" />
      <point x="519" y="60" />
      <point x="519" y="185" type="curve" smooth="yes" />
      <point x="519" y="199" type="line" smooth="yes" />
      <point x="519" y="270" />
      <point x="476" y="329" />
      <point x="406" y="351" type="curve" />
      <point x="467" y="371" />
      <point x="508" y="428" />
      <point x="508" y="492" type="curve" smooth="yes" />
      <point x="508" y="503" type="line" smooth="yes" />
      <point x="508" y="623" />
      <point x="419" y="686" />
      <point x="291" y="686" type="curve" smooth="yes" />
      <point x="154" y="686" />
      <point x="63" y="607" />
      <point x="63" y="494" type="curve" smooth="yes" />
      <point x="63" y="486" type="line" />
      <point x="140" y="486" type="line" />
      <point x="140" y="494" type="line" smooth="yes" />
      <point x="141" y="568" />
      <point x="198" y="618" />
      <point x="288" y="618" type="curve" smooth="yes" />
      <point x="371" y="618" />
      <point x="431" y="578" />
      <point x="431" y="498" type="curve" smooth="yes" />
      <point x="431" y="489" type="line" smooth="yes" />
      <point x="431" y="417" />
      <point x="370" y="381" />
      <point x="291" y="381" type="curve" smooth="yes" />
      <point x="193" y="381" type="line" />
      <point x="193" y="314" type="line" />
      <point x="296" y="314" type="line" smooth="yes" />
      <point x="384" y="314" />
      <point x="442" y="272" />
      <point x="442" y="192" type="curve" smooth="yes" />
      <point x="442" y="182" type="line" smooth="yes" />
      <point x="442" y="100" />
      <point x="375" y="63" />
      <point x="288" y="63" type="curve" smooth="yes" />
      <point x="197" y="63" />
      <point x="140" y="114" />
      <point x="140" y="187" type="curve" smooth="yes" />
      <point x="140" y="194" type="line" />
      <point x="63" y="194" type="line" />
      <point x="63" y="187" type="line" smooth="yes" />
      <point x="63" y="73" />
      <point x="152" y="-6" />
    </contour>
  </outline>
</glyph>
<glyph name="Icyr" format="2">
  <advance width="653" />
  <unicode hex="0418" />
  <guideline x="311" y="0" angle="90" name="h1" />
  <anchor x="311" y="744" name="top" />
  <outline>
    <contour>
      <point x="79" y="0" type="line" />
      <point x="151" y="0" type="line" />
      <point x="502" y="547" type="line" />
      <point x="502" y="0" type="line" />
      <point x="574" y="0" type="line" />
      <point x="574" y="680" type="line" />
      <point x="502" y="680" type="line" />
      <point x="151" y="134" type="line" />
      <point x="151" y="680" type="line" />
      <point x="79" y="680" type="line" />
    </contour>
  </outline>
</glyph>
<glyph name="Kacyr" format="2">
  <advance width="609" />
  <unicode hex="041A" />
  <guideline x="88" y="490" angle="0" name="horizontal" />
  <guideline x="274" y="0" angle="90" name="h1" />
  <anchor x="285" y="740" name="top" />
  <outline>
    <contour>
      <point x="77" y="0" type="line" />
      <point x="154" y="0" type="line" />
      <point x="154" y="313" type="line" />
      <point x="268" y="313" type="line" />
      <point x="511" y="0" type="line" />
      <point x="601" y="0" type="line" />
      <point x="323" y="367" type="line" />
      <point x="570" y="680" type="line" />
      <point x="481" y="680" type="line" />
      <point x="249" y="382" type="line" />
      <point x="154" y="382" type="line" />
      <point x="154" y="680" type="line" />
      <point x="77" y="680" type="line" />
    </contour>
  </outline>
</glyph>
<glyph name="Elcyr" format="2">
  <advance width="547" />
  <unicode hex="041B" />
  <outline>
    <contour>
      <point x="19" y="-8" type="line" />
      <point x="97" y="-8" />
      <point x="138" y="53" />
      <point x="147" y="185" type="curve" smooth="yes" />
      <point x="180" y="616" type="line" />
      <point x="396" y="616" type="line" />
      <point x="396" y="0" type="line" />
      <point x="468" y="0" type="line" />
      <point x="468" y="680" type="line" />
      <point x="113" y="680" type="line" />
      <point x="74" y="216" type="line" smooth="yes" />
      <point x="64" y="107" />
      <point x="49" y="64" />
      <point x="19" y="64" type="curve" />
    </contour>
  </outline>
</glyph>
<glyph name="Pecyr" format="2">
  <advance width="611" />
  <unicode hex="041F" />
  <outline>
    <contour>
      <point x="79" y="0" type="line" />
      <point x="151" y="0" type="line" />
      <point x="151" y="616" type="line" />
      <point x="460" y="616" type="line" />
      <point x="460" y="0" type="line" />
      <point x="532" y="0" type="line" />
      <point x="532" y="680" type="line" />
      <point x="79" y="680" type="line" />
    </contour>
  </outline>
</glyph>
<glyph name="Ucyr" format="2">
  <advance width="492" />
  <unicode hex="0423" />
  <guideline x="239" y="0" angle="90" name="h1" />
  <anchor x="239" y="744" name="top" />
  <outline>
    <contour>
      <point x="88" y="-8" type="line" />
      <point x="117" y="-8" type="line" smooth="yes" />
      <point x="164" y="-8" />
      <point x="214" y="33" />
      <point x="239" y="92" type="curve" smooth="yes" />
      <point x="485" y="680" type="line" />
      <point x="407" y="680" type="line" />
      <point x="238" y="275" type="line" />
      <point x="85" y="680" type="line" />
      <point x="7" y="680" type="line" />
      <point x="200" y="175" type="line" />
      <point x="185" y="135" type="line" smooth="yes" />
      <point x="166" y="87" />
      <point x="139" y="61" />
      <point x="105" y="60" type="curve" smooth="yes" />
      <point x="88" y="60" type="line" />
    </contour>
  </outline>
</glyph>
<glyph name="Efcyr" format="2">
  <advance width="668" />
  <unicode hex="0424" />
  <guideline x="378" y="0" angle="90" name="h1" />
  <anchor x="378" y="741" name="top" />
  <outline>
    <contour>
      <point x="296" y="0" type="line" />
      <point x="372" y="0" type="line" />
      <point x="372" y="63" type="line" />
      <point x="524" y="68" />
      <point x="604" y="163" />
      <point x="604" y="332" type="curve" smooth="yes" />
      <point x="604" y="367" type="line" smooth="yes" />
      <point x="604" y="536" />
      <point x="522" y="630" />
      <point x="372" y="635" type="curve" />
      <point x="372" y="680" type="line" />
      <point x="296" y="680" type="line" />
      <point x="296" y="635" type="line" />
      <point x="145" y="630" />
      <point x="64" y="536" />
      <point x="64" y="366" type="curve" smooth="yes" />
      <point x="64" y="331" type="line" smooth="yes" />
      <point x="64" y="163" />
      <point x="146" y="68" />
      <point x="296" y="63" type="curve" />
    </contour>
    <contour>
      <point x="296" y="132" type="line" />
      <point x="192" y="137" />
      <point x="139" y="203" />
      <point x="139" y="328" type="curve" smooth="yes" />
      <point x="139" y="364" type="line" smooth="yes" />
      <point x="139" y="495" />
      <point x="192" y="562" />
      <point x="296" y="567" type="curve" />
    </contour>
    <contour>
      <point x="372" y="132" type="curve" />
      <point x="372" y="567" type="line" />
      <point x="477" y="562" />
      <point x="530" y="495" />
      <point x="530" y="369" type="curve" smooth="yes" />
      <point x="530" y="334" type="line" smooth="yes" />
      <point x="530" y="203" />
      <point x="477" y="137" />
    </contour>
  </outline>
</glyph>
<glyph name="Tsecyr" format="2">
  <advance width="593" />
  <unicode hex="0426" />
  <outline>
    <contour>
      <point x="511" y="-164" type="line" />
      <point x="583" y="-164" type="line" />
      <point x="583" y="64" type="line" />
      <point x="509" y="64" type="line" />
      <point x="509" y="680" type="line" />
      <point x="437" y="680" type="line" />
      <point x="437" y="64" type="line" />
      <point x="151" y="64" type="line" />
      <point x="151" y="680" type="line" />
      <point x="79" y="680" type="line" />
      <point x="79" y="0" type="line" />
      <point x="511" y="0" type="line" />
    </contour>
  </outline>
</glyph>
<glyph name="Checyr" format="2">
  <advance width="640" />
  <unicode hex="0427" />
  <outline>
    <contour>
      <point x="486" y="0" type="line" />
      <point x="563" y="0" type="line" />
      <point x="563" y="680" type="line" />
      <point x="486" y="680" type="line" />
      <point x="486" y="333" type="line" />
      <point x="453" y="301" />
      <point x="391" y="283" />
      <point x="319" y="283" type="curve" smooth="yes" />
      <point x="215" y="283" />
      <point x="153" y="349" />
      <point x="153" y="455" type="curve" smooth="yes" />
      <point x="153" y="680" type="line" />
      <point x="75" y="680" type="line" />
      <point x="75" y="448" type="line" smooth="yes" />
      <point x="75" y="306" />
      <point x="170" y="215" />
      <point x="319" y="215" type="curve" smooth="yes" />
      <point x="390" y="215" />
      <point x="445" y="228" />
      <point x="486" y="251" type="curve" />
    </contour>
  </outline>
</glyph>
<glyph name="Shacyr" format="2">
  <advance width="806" />
  <unicode hex="0428" />
  <guideline x="78" y="0" angle="90" />
  <guideline x="154" y="0" angle="90" />
  <guideline x="365" y="0" angle="90" />
  <guideline x="442" y="0" angle="90" />
  <guideline x="657" y="0" angle="90" />
  <guideline x="734" y="0" angle="90" />
  <guideline x="0" y="680" angle="0" />
  <anchor x="651" y="669" name="top" />
  <outline>
    <contour>
      <point x="78" y="0" type="line" />
      <point x="728" y="0" type="line" />
      <point x="728" y="680" type="line" />
      <point x="652" y="680" type="line" />
      <point x="652" y="67" type="line" />
      <point x="442" y="67" type="line" />
      <point x="442" y="680" type="line" />
      <point x="366" y="680" type="line" />
      <point x="366" y="67" type="line" />
      <point x="154" y="67" type="line" />
      <point x="154" y="680" type="line" />
      <point x="78" y="680" type="line" />
    </contour>
  </outline>
</glyph>
<glyph name="Shchacyr" format="2">
  <advance width="822" />
  <unicode hex="0429" />
  <outline>
    <contour>
      <point x="725" y="-164" type="line" />
      <point x="801" y="-164" type="line" />
      <point x="801" y="67" type="line" />
      <point x="728" y="67" type="line" />
      <point x="728" y="680" type="line" />
      <point x="651" y="680" type="line" />
      <point x="651" y="67" type="line" />
      <point x="442" y="67" type="line" />
      <point x="442" y="680" type="line" />
      <point x="365" y="680" type="line" />
      <point x="365" y="67" type="line" />
      <point x="154" y="67" type="line" />
      <point x="154" y="680" type="line" />
      <point x="78" y="680" type="line" />
      <point x="78" y="0" type="line" />
      <point x="725" y="0" type="line" />
    </contour>
  </outline>
</glyph>
<glyph name="Hardcyr" format="2">
  <advance width="728" />
  <unicode hex="042A" />
  <outline>
    <contour>
      <point x="188" y="0" type="line" />
      <point x="446" y="0" type="line" smooth="yes" />
      <point x="586" y="0" />
      <point x="666" y="74" />
      <point x="666" y="203" type="curve" smooth="yes" />
      <point x="666" y="327" />
      <point x="584" y="401" />
      <point x="446" y="401" type="curve" smooth="yes" />
      <point x="265" y="401" type="line" />
      <point x="265" y="680" type="line" />
      <point x="0" y="680" type="line" />
      <point x="0" y="612" type="line" />
      <point x="188" y="612" type="line" />
    </contour>
    <contour>
      <point x="265" y="69" type="line" />
      <point x="265" y="333" type="line" />
      <point x="442" y="333" type="line" smooth="yes" />
      <point x="540" y="333" />
      <point x="588" y="289" />
      <point x="588" y="204" type="curve" smooth="yes" />
      <point x="588" y="114" />
      <point x="540" y="69" />
      <point x="441" y="69" type="curve" smooth="yes" />
    </contour>
  </outline>
</glyph>
<glyph name="Softcyr" format="2">
  <advance width="617" />
  <unicode hex="042C" />
  <guideline x="297" y="0" angle="90" name="h1" />
  <guideline x="297" y="0" angle="90" name="h1" />
  <anchor x="297" y="740" name="top" />
  <outline>
    <contour>
      <point x="77" y="0" type="line" />
      <point x="335" y="0" type="line" smooth="yes" />
      <point x="474" y="0" />
      <point x="554" y="74" />
      <point x="554" y="203" type="curve" smooth="yes" />
      <point x="554" y="327" />
      <point x="472" y="401" />
      <point x="335" y="401" type="curve" smooth="yes" />
      <point x="154" y="401" type="line" />
      <point x="154" y="680" type="line" />
      <point x="77" y="680" type="line" />
    </contour>
    <contour>
      <point x="154" y="69" type="line" />
      <point x="154" y="333" type="line" />
      <point x="332" y="333" type="line" smooth="yes" />
      <point x="428" y="333" />
      <point x="477" y="289" />
      <point x="477" y="204" type="curve" smooth="yes" />
      <point x="477" y="114" />
      <point x="429" y="69" />
      <point x="330" y="69" type="curve" smooth="yes" />
    </contour>
  </outline>
</glyph>
<glyph name="Ereversedcyr" format="2">
  <advance width="594" />
  <unicode hex="042D" />
  <guideline x="290" y="0" angle="90" name="h1" />
  <anchor x="290" y="744" name="top" />
  <outline>
    <contour>
      <point x="290" y="-8" type="curve" smooth="yes" />
      <point x="437" y="-8" />
      <point x="529" y="71" />
      <point x="529" y="252" type="curve" smooth="yes" />
      <point x="529" y="428" type="line" smooth="yes" />
      <point x="529" y="609" />
      <point x="437" y="689" />
      <point x="290" y="689" type="curve" smooth="yes" />
      <point x="152" y="689" />
      <point x="59" y="605" />
      <point x="59" y="481" type="curve" smooth="yes" />
      <point x="59" y="478" type="line" />
      <point x="131" y="478" type="line" />
      <point x="131" y="481" type="line" smooth="yes" />
      <point x="131" y="569" />
      <point x="192" y="623" />
      <point x="290" y="623" type="curve" smooth="yes" />
      <point x="400" y="623" />
      <point x="458" y="566" />
      <point x="458" y="425" type="curve" smooth="yes" />
      <point x="458" y="380" type="line" />
      <point x="241" y="380" type="line" />
      <point x="241" y="316" type="line" />
      <point x="458" y="316" type="line" />
      <point x="458" y="248" type="line" smooth="yes" />
      <point x="458" y="121" />
      <point x="402" y="58" />
      <point x="290" y="58" type="curve" smooth="yes" />
      <point x="191" y="58" />
      <point x="131" y="112" />
      <point x="131" y="200" type="curve" smooth="yes" />
      <point x="131" y="204" type="line" />
      <point x="61" y="204" type="line" />
      <point x="61" y="200" type="line" smooth="yes" />
      <point x="61" y="73" />
      <point x="150" y="-8" />
    </contour>
  </outline>
</glyph>
<glyph name="Yucyr" format="2">
  <advance width="764" />
  <unicode hex="042E" />
  <guideline x="414" y="0" angle="90" name="h1" />
  <anchor x="414" y="744" name="top" />
  <outline>
    <component base="O" xOffset="164" />
    <contour>
      <point x="79" y="0" type="line" />
      <point x="151" y="0" type="line" />
      <point x="151" y="316" type="line" />
      <point x="274" y="316" type="line" />
      <point x="274" y="380" type="line" />
      <point x="151" y="380" type="line" />
      <point x="151" y="680" type="line" />
      <point x="79" y="680" type="line" />
    </contour>
  </outline>
</glyph>
<glyph name="Yacyr" format="2">
  <advance width="590" />
  <unicode hex="042F" />
  <guideline x="314" y="0" angle="90" name="h1" />
  <anchor x="314" y="744" name="top" />
  <outline>
    <contour>
      <point x="39" y="0" type="line" />
      <point x="122" y="0" type="line" />
      <point x="275" y="298" type="line" />
      <point x="439" y="298" type="line" />
      <point x="439" y="0" type="line" />
      <point x="511" y="0" type="line" />
      <point x="511" y="680" type="line" />
      <point x="259" y="680" type="line" smooth="yes" />
      <point x="132" y="680" />
      <point x="54" y="610" />
      <point x="54" y="489" type="curve" smooth="yes" />
      <point x="54" y="391" />
      <point x="107" y="326" />
      <point x="199" y="305" type="curve" />
    </contour>
    <contour>
      <point x="126" y="488" type="curve" smooth="yes" />
      <point x="126" y="572" />
      <point x="176" y="615" />
      <point x="265" y="615" type="curve" smooth="yes" />
      <point x="439" y="615" type="line" />
      <point x="439" y="361" type="line" />
      <point x="265" y="361" type="line" smooth="yes" />
      <point x="176" y="361" />
      <point x="126" y="407" />
    </contour>
  </outline>
</glyph>
<glyph name="becyr" format="2">
  <advance width="487" />
  <unicode hex="0431" />
  <outline>
    <contour>
      <point x="242" y="-6" type="curve" smooth="yes" />
      <point x="365" y="-6" />
      <point x="429" y="90" />
      <point x="429" y="199" type="curve" smooth="yes" />
      <point x="429" y="264" type="line" smooth="yes" />
      <point x="429" y="373" />
      <point x="384" y="467" />
      <point x="262" y="467" type="curve" smooth="yes" />
      <point x="205" y="467" />
      <point x="162" y="448" />
      <point x="125" y="412" type="curve" />
      <point x="125" y="614" />
      <point x="254" y="561" />
      <point x="362" y="615" type="curve" />
      <point x="362" y="680" type="line" />
      <point x="226" y="605" />
      <point x="59" y="685" />
      <point x="59" y="419" type="curve" smooth="yes" />
      <point x="59" y="223" type="line" smooth="yes" />
      <point x="60" y="87" />
      <point x="115" y="-6" />
    </contour>
    <contour>
      <point x="125" y="204" type="curve" smooth="yes" />
      <point x="125" y="254" type="line" smooth="yes" />
      <point x="125" y="333" />
      <point x="159" y="408" />
      <point x="248" y="408" type="curve" smooth="yes" />
      <point x="337" y="408" />
      <point x="362" y="336" />
      <point x="362" y="260" type="curve" smooth="yes" />
      <point x="362" y="203" type="line" smooth="yes" />
      <point x="362" y="129" />
      <point x="332" y="54" />
      <point x="244" y="54" type="curve" smooth="yes" />
      <point x="157" y="54" />
      <point x="125" y="126" />
    </contour>
  </outline>
</glyph>
<glyph name="vecyr" format="2">
  <advance width="515" />
  <unicode hex="0432" />
  <outline>
    <contour>
      <point x="74" y="0" type="line" />
      <point x="283" y="0" type="line" smooth="yes" />
      <point x="389" y="0" />
      <point x="442" y="47" />
      <point x="442" y="141" type="curve" smooth="yes" />
      <point x="442" y="209" />
      <point x="415" y="259" />
      <point x="366" y="274" type="curve" />
      <point x="409" y="297" />
      <point x="422" y="330" />
      <point x="422" y="376" type="curve" smooth="yes" />
      <point x="422" y="450" />
      <point x="372" y="499" />
      <point x="296" y="499" type="curve" smooth="yes" />
      <point x="74" y="499" type="line" />
    </contour>
    <contour>
      <point x="141" y="63" type="line" />
      <point x="141" y="237" type="line" />
      <point x="293" y="237" type="line" smooth="yes" />
      <point x="347" y="237" />
      <point x="366" y="192" />
      <point x="366" y="148" type="curve" smooth="yes" />
      <point x="366" y="94" />
      <point x="337" y="63" />
      <point x="289" y="63" type="curve" smooth="yes" />
    </contour>
    <contour>
      <point x="141" y="299" type="line" />
      <point x="141" y="437" type="line" />
      <point x="279" y="437" type="line" smooth="yes" />
      <point x="321" y="437" />
      <point x="355" y="425" />
      <point x="355" y="370" type="curve" smooth="yes" />
      <point x="355" y="342" />
      <point x="328" y="299" />
      <point x="279" y="299" type="curve" smooth="yes" />
    </contour>
  </outline>
</glyph>
<glyph name="gecyr" format="2">
  <advance width="332" />
  <unicode hex="0433" />
  <guideline x="205" y="0" angle="90" name="h1" />
  <anchor x="205" y="564" name="top" />
  <outline>
    <contour>
      <point x="74" y="0" type="line" />
      <point x="140" y="0" type="line" />
      <point x="140" y="437" type="line" />
      <point x="307" y="437" type="line" />
      <point x="307" y="499" type="line" />
      <point x="74" y="499" type="line" />
    </contour>
  </outline>
</glyph>
<glyph name="decyr" format="2">
  <advance width="528" />
  <unicode hex="0434" />
  <guideline x="186" y="431" angle="87.1659" />
  <guideline x="160" y="428" angle="266.6" />
  <outline>
    <contour>
      <point x="19" y="-164" type="line" />
      <point x="94" y="-164" type="line" />
      <point x="94" y="0" type="line" />
      <point x="437" y="0" type="line" />
      <point x="437" y="-164" type="line" />
      <point x="509" y="-164" type="line" />
      <point x="509" y="66" type="line" />
      <point x="459" y="66" type="line" />
      <point x="459" y="500" type="line" />
      <point x="152" y="500" type="line" />
      <point x="139" y="333" type="line" smooth="yes" />
      <point x="130" y="187" />
      <point x="104" y="94" />
      <point x="70" y="66" type="curve" />
      <point x="19" y="66" type="line" />
    </contour>
    <contour>
      <point x="161" y="66" type="line" />
      <point x="189" y="117" />
      <point x="205" y="206" />
      <point x="212" y="327" type="curve" smooth="yes" />
      <point x="219" y="433" type="line" />
      <point x="387" y="433" type="line" />
      <point x="387" y="66" type="line" />
    </contour>
  </outline>
</glyph>
<glyph name="zhecyr" format="2">
  <advance width="747" />
  <unicode hex="0436" />
  <guideline x="263" y="0" angle="90" name="vertical" />
  <guideline x="0" y="499" angle="0" name="horizontal" />
  <guideline x="748" y="0" angle="90" name="vertical" />
  <guideline x="0" y="499" angle="0" name="horizontal" />
  <anchor x="748" y="499" name="top" />
  <outline>
    <component base="kacyr" xOffset="266" />
    <contour>
      <point x="13" y="0" type="line" />
      <point x="95" y="0" type="line" />
      <point x="259" y="231" type="line" />
      <point x="360" y="231" type="line" />
      <point x="360" y="293" type="line" />
      <point x="265" y="293" type="line" />
      <point x="122" y="499" type="line" />
      <point x="41" y="499" type="line" />
      <point x="207" y="271" type="line" />
    </contour>
  </outline>
</glyph>
